<svg width="1006" height="1006" viewBox="0 0 1006 1006" fill="none" xmlns="http://www.w3.org/2000/svg">
<path d="M812.716 839.023C855.323 870.977 919.233 849.675 860.648 791.091C684.898 620.666 722.178 152 503.823 152C285.466 152 322.746 620.666 146.996 791.091C83.0874 855 152.322 870.977 194.928 839.023C360.027 727.182 349.375 530.129 503.823 530.129C658.269 530.129 647.618 727.182 812.716 839.023Z" fill="#3186FF"/>
<mask id="mask0_635_306" style="mask-type:alpha" maskUnits="userSpaceOnUse" x="121" y="152" width="764" height="703">
<path d="M812.715 839.023C855.322 870.977 919.232 849.675 860.647 791.091C684.897 620.666 722.177 152 503.822 152C285.465 152 322.745 620.666 146.995 791.091C83.0864 855 152.321 870.977 194.927 839.023C360.026 727.182 349.375 530.129 503.822 530.129C658.268 530.129 647.617 727.182 812.715 839.023Z" fill="black"/>
</mask>
<g mask="url(#mask0_635_306)">
<g filter="url(#filter0_f_635_306)">
<path d="M88.729 -6.71571C75.7701 107.451 174.153 212.361 308.473 227.607C442.793 242.853 562.187 162.662 575.146 48.4951C588.105 -65.672 489.722 -170.582 355.402 -185.828C221.081 -201.074 101.688 -120.883 88.729 -6.71571Z" fill="#FFE432"/>
</g>
<g filter="url(#filter1_f_635_306)">
<path d="M606.605 366.543C640.259 511.437 787.582 601.016 935.661 566.623C1083.74 532.23 1176.5 386.889 1142.85 241.995C1109.19 97.1005 961.872 7.52161 813.792 41.9146C665.713 76.3075 572.952 221.648 606.605 366.543Z" fill="#FC413D"/>
</g>
<g filter="url(#filter2_f_635_306)">
<path d="M-274.548 463.738C-232.024 613.273 -40.5134 689.838 153.204 634.75C346.921 579.662 469.487 413.782 426.964 264.247C384.44 114.712 192.929 38.1477 -0.788093 93.2356C-194.505 148.323 -317.072 314.203 -274.548 463.738Z" fill="#00B95C"/>
</g>
<g filter="url(#filter3_f_635_306)">
<path d="M-274.548 463.738C-232.024 613.273 -40.5134 689.838 153.204 634.75C346.921 579.662 469.487 413.782 426.964 264.247C384.44 114.712 192.929 38.1477 -0.788093 93.2356C-194.505 148.323 -317.072 314.203 -274.548 463.738Z" fill="#00B95C"/>
</g>
<g filter="url(#filter4_f_635_306)">
<path d="M-120.842 587.686C-14.241 696.568 169.349 689.697 289.219 572.339C409.088 454.981 419.844 271.577 313.243 162.695C206.642 53.8132 23.0519 60.6844 -96.8174 178.042C-216.687 295.4 -227.443 478.804 -120.842 587.686Z" fill="#00B95C"/>
</g>
<g filter="url(#filter5_f_635_306)">
<path d="M436.888 998.321C469.99 1140.84 608.083 1230.54 745.326 1198.66C882.57 1166.79 966.993 1025.41 933.891 882.887C900.789 740.365 762.696 650.669 625.453 682.545C488.209 714.421 403.786 855.799 436.888 998.321Z" fill="#3186FF"/>
</g>
<g filter="url(#filter6_f_635_306)">
<path d="M202.888 -140.058C133.574 14.3479 209.409 198.786 372.27 271.896C535.132 345.006 723.348 279.103 792.662 124.697C861.977 -29.7085 786.142 -214.146 623.28 -287.256C460.419 -360.366 272.203 -294.463 202.888 -140.058Z" fill="#FBBC04"/>
</g>
<g filter="url(#filter7_f_635_306)">
<path d="M17.2102 1350.3C-150.593 1284.42 136.179 742.441 207.488 560.793C278.799 379.146 472.639 285.294 640.442 351.169C808.247 417.043 1007.14 779.873 935.83 961.519C864.519 1143.17 185.014 1416.17 17.2102 1350.3Z" fill="#3186FF"/>
</g>
<g filter="url(#filter8_f_635_306)">
<path d="M1033.97 675.714C989.039 728.147 871.806 701.41 772.113 615.994C672.419 530.577 628.02 418.829 672.944 366.395C717.869 313.962 835.105 340.7 934.798 426.115C1034.49 511.532 1078.89 623.28 1033.97 675.714Z" fill="#749BFF"/>
</g>
<g filter="url(#filter9_f_635_306)">
<path d="M698.61 408.824C883.382 533.813 1096.16 542.024 1173.85 427.164C1251.55 312.304 1164.75 117.868 979.975 -7.12121C795.203 -132.11 582.429 -140.321 504.732 -25.461C427.036 89.3991 513.837 283.835 698.61 408.824Z" fill="#FC413D"/>
</g>
<g filter="url(#filter10_f_635_306)">
<path d="M92.0021 205.532C46.226 315.958 61.1765 427.057 125.395 453.678C189.613 480.299 278.781 412.362 324.557 301.936C370.334 191.51 355.383 80.4115 291.165 53.7903C226.946 27.1692 137.778 95.1064 92.0021 205.532Z" fill="#FFEE48"/>
</g>
</g>
<defs>
<filter id="filter0_f_635_306" x="16.5459" y="-258.724" width="630.783" height="559.227" filterUnits="userSpaceOnUse" color-interpolation-filters="sRGB">
<feFlood flood-opacity="0" result="BackgroundImageFix"/>
<feBlend mode="normal" in="SourceGraphic" in2="BackgroundImageFix" result="shape"/>
<feGaussianBlur stdDeviation="35.5183" result="effect1_foregroundBlur_635_306"/>
</filter>
<filter id="filter1_f_635_306" x="256.283" y="-308.861" width="1236.89" height="1226.26" filterUnits="userSpaceOnUse" color-interpolation-filters="sRGB">
<feFlood flood-opacity="0" result="BackgroundImageFix"/>
<feBlend mode="normal" in="SourceGraphic" in2="BackgroundImageFix" result="shape"/>
<feGaussianBlur stdDeviation="171.713" result="effect1_foregroundBlur_635_306"/>
</filter>
<filter id="filter2_f_635_306" x="-574.92" y="-216.575" width="1302.25" height="1161.14" filterUnits="userSpaceOnUse" color-interpolation-filters="sRGB">
<feFlood flood-opacity="0" result="BackgroundImageFix"/>
<feBlend mode="normal" in="SourceGraphic" in2="BackgroundImageFix" result="shape"/>
<feGaussianBlur stdDeviation="145.972" result="effect1_foregroundBlur_635_306"/>
</filter>
<filter id="filter3_f_635_306" x="-574.92" y="-216.575" width="1302.25" height="1161.14" filterUnits="userSpaceOnUse" color-interpolation-filters="sRGB">
<feFlood flood-opacity="0" result="BackgroundImageFix"/>
<feBlend mode="normal" in="SourceGraphic" in2="BackgroundImageFix" result="shape"/>
<feGaussianBlur stdDeviation="145.972" result="effect1_foregroundBlur_635_306"/>
</filter>
<filter id="filter4_f_635_306" x="-486.2" y="-206.62" width="1164.8" height="1163.62" filterUnits="userSpaceOnUse" color-interpolation-filters="sRGB">
<feFlood flood-opacity="0" result="BackgroundImageFix"/>
<feBlend mode="normal" in="SourceGraphic" in2="BackgroundImageFix" result="shape"/>
<feGaussianBlur stdDeviation="145.972" result="effect1_foregroundBlur_635_306"/>
</filter>
<filter id="filter5_f_635_306" x="152.271" y="398.679" width="1066.24" height="1083.85" filterUnits="userSpaceOnUse" color-interpolation-filters="sRGB">
<feFlood flood-opacity="0" result="BackgroundImageFix"/>
<feBlend mode="normal" in="SourceGraphic" in2="BackgroundImageFix" result="shape"/>
<feGaussianBlur stdDeviation="138.717" result="effect1_foregroundBlur_635_306"/>
</filter>
<filter id="filter6_f_635_306" x="-74.224" y="-568.519" width="1144" height="1121.68" filterUnits="userSpaceOnUse" color-interpolation-filters="sRGB">
<feFlood flood-opacity="0" result="BackgroundImageFix"/>
<feBlend mode="normal" in="SourceGraphic" in2="BackgroundImageFix" result="shape"/>
<feGaussianBlur stdDeviation="125.716" result="effect1_foregroundBlur_635_306"/>
</filter>
<filter id="filter7_f_635_306" x="-259.21" y="105.573" width="1434.48" height="1479.3" filterUnits="userSpaceOnUse" color-interpolation-filters="sRGB">
<feFlood flood-opacity="0" result="BackgroundImageFix"/>
<feBlend mode="normal" in="SourceGraphic" in2="BackgroundImageFix" result="shape"/>
<feGaussianBlur stdDeviation="112.27" result="effect1_foregroundBlur_635_306"/>
</filter>
<filter id="filter8_f_635_306" x="454.492" y="138.632" width="797.929" height="764.846" filterUnits="userSpaceOnUse" color-interpolation-filters="sRGB">
<feFlood flood-opacity="0" result="BackgroundImageFix"/>
<feBlend mode="normal" in="SourceGraphic" in2="BackgroundImageFix" result="shape"/>
<feGaussianBlur stdDeviation="100.461" result="effect1_foregroundBlur_635_306"/>
</filter>
<filter id="filter9_f_635_306" x="306.56" y="-276.213" width="1065.47" height="954.129" filterUnits="userSpaceOnUse" color-interpolation-filters="sRGB">
<feFlood flood-opacity="0" result="BackgroundImageFix"/>
<feBlend mode="normal" in="SourceGraphic" in2="BackgroundImageFix" result="shape"/>
<feGaussianBlur stdDeviation="84.8516" result="effect1_foregroundBlur_635_306"/>
</filter>
<filter id="filter10_f_635_306" x="-144.563" y="-162.021" width="705.685" height="831.51" filterUnits="userSpaceOnUse" color-interpolation-filters="sRGB">
<feFlood flood-opacity="0" result="BackgroundImageFix"/>
<feBlend mode="normal" in="SourceGraphic" in2="BackgroundImageFix" result="shape"/>
<feGaussianBlur stdDeviation="105.018" result="effect1_foregroundBlur_635_306"/>
</filter>
</defs>
</svg>
