<svg width="1006" height="1006" viewBox="0 0 1006 1006" fill="none" xmlns="http://www.w3.org/2000/svg">
<path d="M502.633 352.664C365.206 352.664 253.777 313.852 253.777 262.609V742.446C253.777 791.756 363.268 831.742 499.133 832.528H502.633C640.06 832.528 751.488 793.694 751.488 742.446V262.609C751.488 312.684 640.06 352.664 502.633 352.664Z" fill="url(#paint0_linear_539_326)"/>
<path d="M751.488 262.609C751.488 312.684 640.06 352.669 502.633 352.669C365.206 352.669 253.777 313.852 253.777 262.609C253.777 211.361 365.206 172.527 502.633 172.527C640.06 172.527 751.488 211.361 751.488 262.609Z" fill="#E8E8E8"/>
<path d="M693.648 255.23C693.648 287.07 607.835 312.686 502.631 312.686C397.426 312.686 311.613 287.07 311.613 255.23C311.613 223.391 397.426 198.162 502.631 198.162C607.835 198.162 693.648 223.773 693.648 255.23Z" fill="#50E6FF"/>
<path d="M502.632 269.59C451.393 268.29 400.31 275.778 351.6 291.729C400.355 307.386 451.455 314.479 502.632 312.693C553.912 314.19 605.051 306.565 653.663 290.173C604.813 274.968 553.769 268.012 502.632 269.59Z" fill="#198AB3"/>
<path d="M654.047 595.708V463.724H619.095V624.054H714.615V595.708H654.047ZM376.851 530.876C369.636 527.974 362.943 523.912 357.039 518.849C355.474 517.192 354.256 515.239 353.457 513.104C352.658 510.969 352.294 508.695 352.387 506.418C352.269 504.139 352.743 501.868 353.764 499.827C354.785 497.786 356.318 496.045 358.213 494.773C362.991 491.468 368.723 489.828 374.526 490.105C388.35 489.49 401.992 493.446 413.343 501.362V467.988C400.945 463.36 387.749 461.25 374.526 461.781C359.292 460.964 344.271 465.641 332.193 474.96C326.932 479.019 322.712 484.271 319.88 490.281C317.047 496.291 315.684 502.889 315.901 509.53C315.901 529.321 328.311 544.847 354.719 556.493C363.29 560.139 371.37 564.829 378.795 570.48C380.61 572.001 382.07 573.9 383.076 576.045C384.081 578.189 384.606 580.527 384.615 582.895C384.615 587.694 382.289 592.17 378.407 594.944C373.115 598.031 367.04 599.512 360.921 599.208C345.306 599.077 330.27 593.28 318.609 582.895V618.998C331.43 625.616 345.737 628.825 360.156 628.318C376.426 629.279 392.548 624.78 405.962 615.499C410.697 611.015 414.321 605.489 416.546 599.359C418.772 593.229 419.537 586.664 418.78 580.187C418.97 570.248 415.517 560.584 409.073 553.015C400.002 543.46 389.024 535.917 376.851 530.876ZM580.284 592.596C589.097 577.837 593.54 560.88 593.097 543.695C592.218 529.141 587.821 515.018 580.284 502.536C574.223 490.416 564.787 480.306 553.112 473.426C541.276 466.713 527.885 463.226 514.278 463.315C499.615 462.999 485.135 466.623 472.349 473.808C460.363 480.494 450.531 490.46 444.009 502.536C437.136 516.26 433.676 531.439 433.92 546.786C433.997 560.276 437.186 573.568 443.239 585.624C449.167 597.611 458.479 607.598 470.023 614.347C481.751 621.49 495.118 625.5 508.841 625.992L542.236 664.809H589.216L541.445 622.116C557.531 617.29 571.327 606.804 580.284 592.596ZM541.445 582.895C537.914 587.285 533.413 590.797 528.296 593.154C523.178 595.511 517.584 596.648 511.953 596.478C506.276 596.665 500.637 595.495 495.504 593.065C490.371 590.635 485.892 587.016 482.438 582.507C474.247 571.292 470.26 557.553 471.175 543.695C470.284 529.833 474.268 516.096 482.438 504.862C486.091 500.356 490.708 496.728 495.949 494.243C501.19 491.758 506.922 490.48 512.722 490.503C518.394 490.253 524.037 491.438 529.129 493.947C534.222 496.457 538.598 500.211 541.854 504.862C549.496 516.314 553.175 529.954 552.326 543.695C553.69 557.659 549.811 571.632 541.445 582.895Z" fill="url(#paint1_radial_539_326)"/>
<defs>
<linearGradient id="paint0_linear_539_326" x1="253.776" y1="547.562" x2="751.489" y2="547.562" gradientUnits="userSpaceOnUse">
<stop stop-color="#005BA1"/>
<stop offset="0.07" stop-color="#0060A9"/>
<stop offset="0.36" stop-color="#0071C8"/>
<stop offset="0.52" stop-color="#0078D4"/>
<stop offset="0.64" stop-color="#0074CD"/>
<stop offset="0.82" stop-color="#006ABB"/>
<stop offset="1" stop-color="#005BA1"/>
</linearGradient>
<radialGradient id="paint1_radial_539_326" cx="0" cy="0" r="1" gradientUnits="userSpaceOnUse" gradientTransform="translate(284760 91777.1) scale(205880 53403.4)">
<stop stop-color="#F2F2F2"/>
<stop offset="0.58" stop-color="#EEEEEE"/>
<stop offset="1" stop-color="#E6E6E6"/>
</radialGradient>
</defs>
</svg>
