<svg width="500" height="500" viewBox="0 0 500 500" fill="none" xmlns="http://www.w3.org/2000/svg">
<path d="M250 142.773C151.672 142.773 71.9453 115.004 71.9453 78.3398V421.66C71.9453 456.941 150.285 485.551 247.496 486.113H250C348.328 486.113 428.055 458.328 428.055 421.66V78.3398C428.055 114.168 348.328 142.773 250 142.773Z" fill="url(#paint0_linear_510_342)"/>
<path d="M428.055 78.3398C428.055 114.168 348.328 142.777 250 142.777C151.672 142.777 71.9453 115.004 71.9453 78.3398C71.9453 41.6719 151.672 13.8867 250 13.8867C348.328 13.8867 428.055 41.6719 428.055 78.3398Z" fill="#E8E8E8"/>
<path d="M386.672 73.0586C386.672 95.8398 325.273 114.168 250 114.168C174.727 114.168 113.328 95.8398 113.328 73.0586C113.328 50.2773 174.727 32.2266 250 32.2266C325.273 32.2266 386.672 50.5508 386.672 73.0586Z" fill="#50E6FF"/>
<path d="M250 83.3326C213.339 82.4022 176.789 87.7597 141.938 99.1724C176.822 110.375 213.383 115.45 250 114.172C286.691 115.244 323.28 109.788 358.063 98.0592C323.11 87.1803 286.589 82.2032 250 83.3326Z" fill="#198AB3"/>
<path d="M358.336 316.671V222.237H333.329V336.952H401.672V316.671H358.336ZM160.004 270.284C154.842 268.208 150.053 265.301 145.829 261.679C144.709 260.493 143.837 259.095 143.266 257.568C142.694 256.04 142.434 254.414 142.501 252.784C142.416 251.154 142.755 249.529 143.486 248.069C144.216 246.608 145.313 245.362 146.668 244.452C150.087 242.088 154.189 240.914 158.34 241.112C168.232 240.672 177.993 243.503 186.114 249.167V225.288C177.243 221.976 167.801 220.467 158.34 220.847C147.441 220.262 136.693 223.608 128.051 230.276C124.288 233.181 121.268 236.938 119.241 241.238C117.215 245.539 116.239 250.259 116.395 255.011C116.395 269.171 125.274 280.28 144.168 288.612C150.301 291.222 156.083 294.577 161.395 298.62C162.693 299.709 163.739 301.068 164.458 302.602C165.177 304.136 165.553 305.809 165.559 307.503C165.559 310.937 163.895 314.14 161.118 316.124C157.331 318.333 152.984 319.393 148.606 319.175C137.434 319.081 126.676 314.934 118.333 307.503V333.335C127.506 338.07 137.742 340.366 148.059 340.003C159.7 340.69 171.235 337.472 180.833 330.831C184.221 327.623 186.814 323.669 188.406 319.283C189.998 314.897 190.545 310.2 190.004 305.565C190.14 298.454 187.67 291.539 183.059 286.124C176.569 279.287 168.714 273.891 160.004 270.284ZM305.559 314.444C311.865 303.884 315.044 291.751 314.727 279.456C314.098 269.043 310.952 258.937 305.559 250.007C301.223 241.335 294.471 234.101 286.118 229.179C277.649 224.375 268.068 221.881 258.333 221.944C247.841 221.718 237.481 224.311 228.333 229.452C219.756 234.236 212.722 241.366 208.055 250.007C203.138 259.826 200.662 270.687 200.836 281.667C200.892 291.32 203.173 300.829 207.504 309.456C211.746 318.033 218.409 325.178 226.668 330.007C235.06 335.118 244.623 337.987 254.442 338.339L278.336 366.112H311.95L277.77 335.565C289.28 332.112 299.151 324.61 305.559 314.444ZM277.77 307.503C275.244 310.644 272.023 313.157 268.362 314.843C264.7 316.53 260.698 317.344 256.668 317.222C252.607 317.356 248.573 316.519 244.9 314.78C241.227 313.041 238.022 310.452 235.551 307.226C229.691 299.201 226.838 289.371 227.493 279.456C226.855 269.538 229.705 259.709 235.551 251.671C238.165 248.447 241.468 245.851 245.218 244.073C248.968 242.295 253.069 241.381 257.219 241.397C261.277 241.218 265.315 242.066 268.958 243.862C272.602 245.657 275.733 248.343 278.063 251.671C283.531 259.864 286.163 269.624 285.555 279.456C286.531 289.447 283.756 299.444 277.77 307.503Z" fill="url(#paint1_radial_510_342)"/>
<defs>
<linearGradient id="paint0_linear_510_342" x1="71.9444" y1="282.222" x2="428.055" y2="282.222" gradientUnits="userSpaceOnUse">
<stop stop-color="#005BA1"/>
<stop offset="0.07" stop-color="#0060A9"/>
<stop offset="0.36" stop-color="#0071C8"/>
<stop offset="0.52" stop-color="#0078D4"/>
<stop offset="0.64" stop-color="#0074CD"/>
<stop offset="0.82" stop-color="#006ABB"/>
<stop offset="1" stop-color="#005BA1"/>
</linearGradient>
<radialGradient id="paint1_radial_510_342" cx="0" cy="0" r="1" gradientUnits="userSpaceOnUse" gradientTransform="translate(203634 65556.4) scale(147306 38209.8)">
<stop stop-color="#F2F2F2"/>
<stop offset="0.58" stop-color="#EEEEEE"/>
<stop offset="1" stop-color="#E6E6E6"/>
</radialGradient>
</defs>
</svg>
