<svg width="1006" height="1006" viewBox="0 0 1006 1006" fill="none" xmlns="http://www.w3.org/2000/svg">
<path d="M467.124 889.464L175.466 720.695C166.113 713.228 160.307 707.173 156.376 700.378L502.848 501.461L846.55 700.706C842.227 708.413 835.92 714.886 826.29 722.334L535.615 889.464C510.619 902.518 495.803 902.144 467.124 889.464Z" fill="url(#paint0_radial_519_310)"/>
<path d="M534.632 114.439L828.257 283.535C836.675 290.943 842.298 297.125 846.253 303.854L156.568 700.705C153.238 695.057 151.231 688.918 149.578 681.042V330.069C153.63 303.485 160.851 292.634 181.693 279.275L468.108 114.439C494.683 101.699 509.17 102.441 534.632 114.439Z" fill="url(#paint1_radial_519_310)"/>
<path d="M854.473 328.758V480.158L854.801 672.522C853.108 684.467 850.776 693.175 846.551 700.705L502.848 501.46L846.253 303.854C850.385 310.884 852.697 318.511 854.473 328.758Z" fill="url(#paint2_radial_519_310)"/>
<path d="M504.988 260.088C592.908 260.991 670.119 309.325 713.221 380.394L607.574 441.184C586.039 405.857 547.6 381.851 503.842 381.401C436.474 381.401 381.969 435.588 382.769 503.075C383.559 569.733 439.546 623.033 504.6 622.414C548.363 622.059 585.818 597.775 607.427 562.106L713.626 623.693C713.596 623.742 713.569 623.791 713.54 623.84C670.3 695.731 592.717 743.364 504.686 744.077C374.296 745.318 262.08 638.52 260.497 504.954C258.893 369.728 369.959 260.088 504.988 260.088Z" fill="url(#paint3_radial_519_310)"/>
<path d="M688.661 466.641H710.014L716.757 436.693H743.73L736.987 466.641H749.349V491.597H731.367L726.31 511.562H749.349V536.518H721.253L714.51 566.465H686.976L693.719 536.518H672.365L665.622 566.465H638.651L645.394 536.518H631.346V511.562H651.013L656.071 491.597H631.346V466.641H661.127L667.87 436.693H695.405L688.661 466.641ZM677.986 511.564H699.338L704.396 491.6H683.043L677.986 511.564Z" fill="url(#paint4_radial_519_310)"/>
<defs>
<radialGradient id="paint0_radial_519_310" cx="0" cy="0" r="1" gradientUnits="userSpaceOnUse" gradientTransform="translate(501.21 501.133) rotate(90) scale(476.484 473.395)">
<stop offset="0.0929386" stop-color="#4F00CE"/>
<stop offset="0.710898" stop-color="#280068"/>
</radialGradient>
<radialGradient id="paint1_radial_519_310" cx="0" cy="0" r="1" gradientUnits="userSpaceOnUse" gradientTransform="translate(509.729 495.562) rotate(-124.855) scale(527.539 617.121)">
<stop offset="0.0929386" stop-color="#A179DC"/>
<stop offset="1" stop-color="#4500AE"/>
</radialGradient>
<radialGradient id="paint2_radial_519_310" cx="0" cy="0" r="1" gradientUnits="userSpaceOnUse" gradientTransform="translate(510.057 502.443) rotate(1.66484) scale(417.346 577.313)">
<stop offset="0.326923" stop-color="#390091"/>
<stop offset="1" stop-color="#11002B"/>
</radialGradient>
<radialGradient id="paint3_radial_519_310" cx="0" cy="0" r="1" gradientUnits="userSpaceOnUse" gradientTransform="translate(468.557 473.017) rotate(89.9995) scale(453.203 442.875)">
<stop offset="0.307692" stop-color="white"/>
<stop offset="0.908873" stop-color="#575757"/>
</radialGradient>
<radialGradient id="paint4_radial_519_310" cx="0" cy="0" r="1" gradientTransform="matrix(-0.0224768 75.9862 -69.0953 -0.0161255 690.347 501.579)" gradientUnits="userSpaceOnUse">
<stop offset="0.375" stop-color="white"/>
<stop offset="1" stop-color="#A3A3A3"/>
</radialGradient>
</defs>
</svg>
