<svg width="1006" height="1006" viewBox="0 0 1006 1006" fill="none" xmlns="http://www.w3.org/2000/svg">
<path d="M644.018 176.588H602.627L645.672 223.299V245.536H557.014V219.498H600.054L557.014 172.787V150.527H644.018V176.588ZM539.435 176.588H498.044L541.089 223.299V245.536H452.426V219.498H495.471L452.426 172.787V150.527H539.435V176.588ZM435.878 177.653H391.213V218.411H435.878V245.536H359.463V150.527H435.878V177.653Z" fill="url(#paint0_linear_390_356)"/>
<path d="M298.6 797.966L253.211 288.908H751.921L706.494 797.882L502.261 854.509L298.6 797.966Z" fill="url(#paint1_linear_390_356)"/>
<path d="M502.574 811.225L667.596 765.472L706.42 330.531H502.574V811.225Z" fill="url(#paint2_linear_390_356)"/>
<path d="M502.568 514.96H585.183L590.895 451.028H502.568V388.594H659.126L657.629 405.343L642.287 577.389H502.568V514.96Z" fill="url(#paint3_linear_390_356)"/>
<path d="M502.944 677.106L502.67 677.184L433.138 658.405L428.688 608.611H366.023L374.773 706.641L502.658 742.141L502.95 742.057L502.944 677.106Z" fill="url(#paint4_linear_390_356)"/>
<path d="M579.882 574.752L572.359 658.365L502.727 677.16V742.117L630.718 706.645L631.66 696.096L642.524 574.752H579.882Z" fill="url(#paint5_linear_390_356)"/>
<path d="M502.787 388.594V451.023H351.981L350.725 436.992L347.883 405.343L346.387 388.594H502.787ZM502.569 514.966V577.4H433.918L432.668 563.37L429.82 531.715L428.323 514.966H502.569Z" fill="url(#paint6_linear_390_356)"/>
<defs>
<linearGradient id="paint0_linear_390_356" x1="502.567" y1="201.625" x2="502.567" y2="265.275" gradientUnits="userSpaceOnUse">
<stop stop-color="white"/>
<stop offset="1" stop-color="#9D9D9D"/>
</linearGradient>
<linearGradient id="paint1_linear_390_356" x1="502.57" y1="126.404" x2="490.997" y2="1052.23" gradientUnits="userSpaceOnUse">
<stop offset="0.221154" stop-color="#1882D0"/>
<stop offset="1" stop-color="#093250"/>
</linearGradient>
<linearGradient id="paint2_linear_390_356" x1="606.723" y1="120.614" x2="606.723" y2="1023.29" gradientUnits="userSpaceOnUse">
<stop offset="0.326923" stop-color="#33A9DC"/>
<stop offset="1" stop-color="#1B5B76"/>
</linearGradient>
<linearGradient id="paint3_linear_390_356" x1="444.704" y1="479.37" x2="716.664" y2="479.37" gradientUnits="userSpaceOnUse">
<stop offset="0.132862" stop-color="white"/>
<stop offset="1" stop-color="#999999"/>
</linearGradient>
<linearGradient id="paint4_linear_390_356" x1="434.486" y1="608.611" x2="434.486" y2="742.141" gradientUnits="userSpaceOnUse">
<stop offset="0.0432692" stop-color="#EBEBEB"/>
<stop offset="1" stop-color="#858585"/>
</linearGradient>
<linearGradient id="paint5_linear_390_356" x1="456.279" y1="687.683" x2="722.452" y2="681.897" gradientUnits="userSpaceOnUse">
<stop offset="0.0769231" stop-color="white"/>
<stop offset="1" stop-color="#999999"/>
</linearGradient>
<linearGradient id="paint6_linear_390_356" x1="424.587" y1="388.594" x2="421.559" y2="971.213" gradientUnits="userSpaceOnUse">
<stop stop-color="#EBEBEB"/>
<stop offset="1" stop-color="#858585"/>
</linearGradient>
</defs>
</svg>
