<svg width="1006" height="1006" viewBox="0 0 1006 1006" fill="none" xmlns="http://www.w3.org/2000/svg">
<path d="M866.686 433.053C872.936 386.959 838.561 351.021 816.686 333.834C792.467 361.959 788.561 436.959 826.842 468.209C804.967 486.959 760.436 504.928 713.561 504.928H149.498C144.811 553.365 153.404 597.896 172.936 636.178L179.186 647.896C183.092 654.928 187.779 661.178 192.467 668.209C215.904 669.771 236.998 670.553 256.529 669.771C294.811 668.99 326.061 664.303 350.279 656.49C354.186 654.928 357.311 657.271 358.873 660.396C360.436 664.303 358.092 667.428 354.967 668.99C351.842 669.771 348.717 671.334 344.811 672.115C326.061 677.584 305.748 680.709 279.967 682.272H275.279C265.123 683.053 254.186 683.053 242.467 683.053C229.967 683.053 218.248 683.053 204.186 682.272C251.061 735.397 324.498 766.646 416.686 766.646C611.998 766.646 777.623 679.928 850.279 486.178C902.623 491.646 952.623 478.365 975.279 433.834C940.123 413.521 893.248 419.771 866.686 433.053Z" fill="#00AADA"/>
<path d="M866.694 433.053C872.944 386.959 838.569 351.021 816.694 333.834C792.475 361.959 788.569 436.959 826.85 468.209C804.975 486.959 760.444 504.928 713.569 504.928H182.319C179.975 579.146 207.319 635.396 256.538 668.99C294.819 668.209 326.069 663.521 350.288 655.709C354.194 654.146 357.319 656.49 358.881 659.615C360.444 663.521 358.1 666.646 354.975 668.209C351.85 668.99 348.725 670.553 344.819 671.334C326.069 676.803 304.194 680.709 278.413 682.272L277.631 681.49C344.038 715.865 440.131 715.084 551.069 672.896C674.506 625.24 790.131 534.615 870.6 431.49C869.038 432.271 868.256 433.053 866.694 433.053Z" fill="#28B8EB"/>
<path d="M150.289 563.523C153.414 589.305 161.227 613.523 172.945 636.18L179.195 647.898C183.102 654.93 187.789 661.18 192.477 668.211C215.914 669.773 237.008 670.555 256.539 669.773C294.82 668.992 326.07 664.305 350.289 656.492C354.195 654.93 357.32 657.273 358.883 660.398C360.445 664.305 358.102 667.43 354.977 668.992C351.852 669.773 348.727 671.336 344.82 672.117C326.07 677.586 304.195 681.492 278.414 683.055H275.289C265.133 683.836 254.195 683.836 243.258 683.836C230.758 683.836 218.258 683.836 204.977 683.055C251.852 736.18 326.07 767.43 418.258 767.43C585.445 767.43 730.758 704.148 815.133 564.305H150.289V563.523Z" fill="#028BB8"/>
<path d="M187.795 563.523C197.951 608.836 221.389 644.773 256.545 668.992C294.826 668.211 326.076 663.523 350.295 655.711C354.201 654.148 357.326 656.492 358.889 659.617C360.451 663.523 358.107 666.648 354.982 668.211C351.857 668.992 348.732 670.555 344.826 671.336C326.076 676.805 304.201 680.711 277.639 682.273C344.045 716.648 440.139 715.867 550.295 673.68C616.701 647.898 681.545 609.617 739.357 563.523H187.795Z" fill="#019BC6"/>
<path fill-rule="evenodd" clip-rule="evenodd" d="M226.064 414.314H302.627V490.877H226.064V414.314ZM232.314 421.346H238.564V484.627H232.314V421.346ZM244.033 421.346H250.283V484.627H244.033V421.346ZM255.752 421.346H262.002V484.627H255.752V421.346ZM266.689 421.346H272.939V484.627H266.689V421.346ZM278.408 421.346H284.658V484.627H278.408V421.346ZM290.127 421.346H296.377V484.627H290.127V421.346ZM314.346 326.814H390.908V402.596H314.346V326.814ZM320.596 333.064H326.846V396.346H320.596V333.064ZM332.314 333.064H338.564V396.346H332.314V333.064ZM343.252 333.064H349.502V396.346H343.252V333.064ZM354.971 333.064H361.221V396.346H354.971V333.064ZM366.689 333.064H372.939V396.346H366.689V333.064ZM378.408 333.064H384.658V396.346H378.408V333.064Z" fill="#00ACD3"/>
<path fill-rule="evenodd" clip-rule="evenodd" d="M314.352 414.309H390.914V490.871H314.352V414.309ZM320.602 421.34H326.852V484.621H320.602V421.34ZM332.32 421.34H338.57V484.621H332.32V421.34ZM343.258 421.34H349.508V484.621H343.258V421.34ZM354.977 421.34H361.227V484.621H354.977V421.34ZM366.695 421.34H372.945V484.621H366.695V421.34ZM378.414 421.34H384.664V484.621H378.414V421.34Z" fill="#23C2EE"/>
<path fill-rule="evenodd" clip-rule="evenodd" d="M402.639 414.309H479.201V490.871H402.639V414.309ZM408.889 421.34H415.139V484.621H408.889V421.34ZM419.826 421.34H426.076V484.621H419.826V421.34ZM431.545 421.34H437.795V484.621H431.545V421.34ZM443.264 421.34H449.514V484.621H443.264V421.34ZM454.982 421.34H461.232V484.621H454.982V421.34ZM465.92 421.34H472.17V484.621H465.92V421.34Z" fill="#00ACD3"/>
<path fill-rule="evenodd" clip-rule="evenodd" d="M402.639 326.814H479.201V402.596H402.639V326.814ZM408.889 333.064H415.139V396.346H408.889V333.064ZM419.826 333.064H426.076V396.346H419.826V333.064ZM431.545 333.064H437.795V396.346H431.545V333.064ZM443.264 333.064H449.514V396.346H443.264V333.064ZM454.982 333.064H461.232V396.346H454.982V333.064ZM465.92 333.064H472.17V396.346H465.92V333.064ZM490.139 414.314H566.701V490.877H490.139V414.314ZM497.17 421.346H503.42V484.627H497.17V421.346ZM508.107 421.346H514.357V484.627H508.107V421.346ZM519.826 421.346H526.076V484.627H519.826V421.346ZM531.545 421.346H537.795V484.627H531.545V421.346ZM542.482 421.346H548.732V484.627H542.482V421.346ZM554.201 421.346H560.451V484.627H554.201V421.346Z" fill="#23C2EE"/>
<path fill-rule="evenodd" clip-rule="evenodd" d="M490.133 326.814H566.695V402.596H490.133V326.814ZM497.164 333.064H503.414V396.346H497.164V333.064ZM508.102 333.064H514.352V396.346H508.102V333.064ZM519.82 333.064H526.07V396.346H519.82V333.064ZM531.539 333.064H537.789V396.346H531.539V333.064ZM542.477 333.064H548.727V396.346H542.477V333.064ZM554.195 333.064H560.445V396.346H554.195V333.064Z" fill="#00ACD3"/>
<path fill-rule="evenodd" clip-rule="evenodd" d="M490.133 238.527H566.695V315.09H490.133V238.527ZM497.164 244.777H503.414V308.84H497.164V244.777ZM508.102 244.777H514.352V308.84H508.102V244.777ZM519.82 244.777H526.07V308.84H519.82V244.777ZM531.539 244.777H537.789V308.84H531.539V244.777ZM542.477 244.777H548.727V308.84H542.477V244.777ZM554.195 244.777H560.445V308.84H554.195V244.777Z" fill="#23C2EE"/>
<path fill-rule="evenodd" clip-rule="evenodd" d="M578.42 414.309H654.982V490.871H578.42V414.309ZM584.67 421.34H590.92V484.621H584.67V421.34ZM596.389 421.34H602.639V484.621H596.389V421.34ZM608.107 421.34H614.357V484.621H608.107V421.34ZM619.045 421.34H625.295V484.621H619.045V421.34ZM630.764 421.34H637.014V484.621H630.764V421.34ZM642.482 421.34H648.732V484.621H642.482V421.34Z" fill="#00ACD3"/>
<path fill-rule="evenodd" clip-rule="evenodd" d="M385.434 615.084C397.152 615.084 406.527 624.459 406.527 636.178C406.527 647.896 397.152 657.271 385.434 657.271C373.715 657.271 364.34 647.896 364.34 636.178C365.121 624.459 374.496 615.084 385.434 615.084Z" fill="#D4EEF1"/>
<path fill-rule="evenodd" clip-rule="evenodd" d="M385.445 620.562C387.008 620.562 389.352 620.562 390.914 621.344C389.352 622.125 387.789 624.469 387.789 626.812C387.789 629.937 390.914 633.062 394.039 633.062C396.383 633.062 398.727 631.5 399.508 629.937C400.289 631.5 400.289 633.844 400.289 635.406C400.289 644 393.258 650.25 385.445 650.25C376.852 650.25 370.602 643.219 370.602 635.406C370.602 627.594 377.633 620.562 385.445 620.562ZM13.5703 571.344H992.477C971.383 565.875 925.289 558.844 932.32 530.719C893.258 575.25 800.289 561.969 776.07 540.094C749.508 578.375 596.383 563.531 586.227 533.844C553.414 572.906 451.07 572.906 418.258 533.844C407.32 563.531 254.195 578.375 228.414 540.094C204.977 561.969 111.227 575.25 72.1641 530.719C80.7578 558.062 34.6641 565.875 13.5703 571.344Z" fill="#3A4D54"/>
<path d="M441.689 766.656C389.346 741.656 361.221 708.062 344.814 671.344C325.283 676.812 301.846 680.719 275.283 682.281C265.127 683.063 254.189 683.062 243.252 683.062C229.971 683.062 216.689 683.063 202.627 682.281C250.283 729.938 309.658 766.656 418.252 767.437C426.064 766.656 433.877 766.656 441.689 766.656Z" fill="#BFDBE0"/>
<path d="M364.352 704.937C357.32 694.781 350.289 683.063 344.82 671.344C325.289 676.813 301.852 680.719 275.289 682.281C294.039 692.438 320.602 701.812 364.352 704.937Z" fill="#D4EEF1"/>
</svg>
