<svg width="1008" height="1008" viewBox="0 0 1008 1008" fill="none" xmlns="http://www.w3.org/2000/svg">
<path d="M485.839 94.9746H517.474C599.984 98.3917 681.548 126.208 747.687 175.938C810.339 222.494 859.29 287.312 886.461 360.566C902.052 401.361 909.864 444.749 912.534 488.258V515.155C909.889 587.285 889.131 658.994 850.386 720.068C806.947 789.656 742.303 846.087 666.902 878.649C617.541 900.053 564.459 911.565 510.666 912.533H496.971C422.018 911.313 347.448 889.156 284.298 848.712C212.787 803.28 155.826 735.116 124.44 656.35C107.054 613.549 97.7923 567.753 94.9756 521.714V490.053C98.1947 398.142 132.998 307.323 193.402 237.785C242.954 179.988 308.946 136.363 381.677 113.734C415.433 103.086 450.588 97.5933 485.839 94.9746ZM255.875 334.64C255.683 412.264 255.805 489.881 255.805 567.478C264.938 567.549 274.072 567.549 283.225 567.549C282.746 500.911 283.87 434.293 282.548 367.675C285.614 373.468 288.411 379.427 291.905 384.965C331.525 445.694 370.295 506.947 409.921 567.625C421.022 567.478 432.122 567.478 443.223 567.651C443.204 489.983 443.179 412.315 443.249 334.647C434.201 334.559 425.152 334.533 416.103 334.57C416.582 400.486 415.235 466.401 416.902 532.247C375.341 466.127 333.223 400.384 291.106 334.596C279.363 334.523 267.618 334.538 255.875 334.64ZM503.978 334.57C503.154 412.238 503.953 489.906 503.678 567.549C544.997 567.453 586.315 567.702 627.653 567.421C627.505 559.007 627.556 550.59 627.806 542.179C595.794 542.077 563.762 542.224 531.724 542.051C531.251 515.161 531.698 488.233 531.469 461.336C559.54 460.838 587.612 461.413 615.651 461.036C615.581 452.88 615.581 444.723 615.53 436.561C587.51 437.461 559.495 436.216 531.449 436.637C531.526 410.942 531.577 385.22 531.577 359.493C561.59 359.493 591.604 359.365 621.592 359.57C621.54 351.26 621.592 342.925 621.694 334.621C582.445 334.519 543.195 334.57 503.978 334.57ZM648.341 334.915C648.367 343.001 648.367 351.062 648.392 359.122C670.671 358.867 692.924 359.819 715.202 359.346C715.055 428.73 715.227 498.063 715.132 567.402C724.457 567.676 733.846 567.625 743.171 566.827C742.405 528.555 743.925 490.258 742.175 452.005C742.603 434.766 741.728 417.552 742.922 400.333C743.599 386.664 741.153 373.015 742.699 359.346C765.156 359.646 787.632 359.442 810.083 359.442C809.981 351.28 810.141 343.118 810.562 334.966C756.469 334.296 702.383 334.366 648.341 334.915ZM181.522 536.29C168.894 542.102 168.07 561.986 180.57 568.398C191.556 575.935 208.067 566.029 207.569 553.005C208.418 540.205 192.942 529.449 181.522 536.29ZM368.219 633.943C340.901 656.1 341.227 705.448 371.412 724.961C388.453 735.787 410.387 733.545 428.399 726.334C428.475 722.367 428.571 718.42 428.718 714.454C411.658 723.364 387.776 725.184 373.309 710.557C354.371 689.882 358.638 651.355 383.612 637.258C397.734 629.824 414.954 631.995 428.871 638.785C428.827 634.569 428.846 630.354 428.871 626.138C409.09 619.119 384.659 619.496 368.219 633.943ZM478.123 651.253C466.051 652.658 454.12 659.045 448.531 670.197C440.528 686.139 441.448 707.67 454.05 721.039C467.048 735.71 492.021 735.857 506.297 722.936C521.786 708.194 523.536 681.624 511.132 664.404C503.799 653.999 490.227 650.454 478.123 651.253ZM592.37 668.645C581.768 687.059 583.863 714.952 602.577 727.477C616.52 735.269 634.085 732.791 647.76 725.51C647.734 721.569 647.785 717.622 647.958 713.706C637.183 720.541 622.812 725.561 610.836 718.669C602.475 714.058 599.952 704.253 598.611 695.516C616.974 695.267 635.311 694.992 653.7 695.043C653.221 683.367 652.946 670.171 644.438 661.14C630.393 645.619 602.002 650.556 592.37 668.645ZM538.629 653.724V730.422C542.793 730.422 547.009 730.422 551.23 730.447C551.377 716.427 550.975 702.382 551.377 688.33C551.48 680.218 554.743 671.992 560.856 666.524C565.972 662.66 572.883 664.8 578.746 664.953C578.67 660.891 578.619 656.841 578.6 652.805C567.147 650.263 557.292 656.969 551.505 666.326C551.377 662.283 551.25 658.24 551.179 654.229C546.989 654.076 542.793 653.903 538.629 653.724Z" fill="url(#paint0_linear_497_279)"/>
<path d="M470.262 664.859C480.813 659.717 495.957 662.24 501.846 673.162C508.553 685.215 508.406 701.157 500.971 712.833C491.263 727.434 465.669 724.24 459.308 708.093C452.869 693.671 455.367 673.073 470.262 664.859ZM599.806 685.24C600.1 675.187 607.113 665.204 617.218 663.013C623.451 661.965 630.611 663.057 634.929 668.078C639.221 672.638 640.122 679.025 641.189 684.94C627.392 685.017 613.602 684.742 599.806 685.24Z" fill="url(#paint1_linear_497_279)"/>
<defs>
<linearGradient id="paint0_linear_497_279" x1="280.561" y1="185.315" x2="804.616" y2="991.836" gradientUnits="userSpaceOnUse">
<stop stop-color="#623697"/>
<stop offset="1" stop-color="#201231"/>
</linearGradient>
<linearGradient id="paint1_linear_497_279" x1="234.369" y1="348.01" x2="120.587" y2="811.149" gradientUnits="userSpaceOnUse">
<stop stop-color="#623697"/>
<stop offset="1" stop-color="#201231"/>
</linearGradient>
</defs>
</svg>
