<svg width="1006" height="1006" viewBox="0 0 1006 1006" fill="none" xmlns="http://www.w3.org/2000/svg">
<path d="M864.248 469.277L535.678 140.719C516.769 121.797 486.079 121.797 467.14 140.719L398.917 208.953L485.465 295.501C505.585 288.711 528.644 293.266 544.674 309.296C560.788 325.427 565.307 348.683 558.35 368.868L641.762 452.287C661.941 445.33 685.233 449.825 701.341 465.968C723.875 488.485 723.875 524.986 701.341 547.515C695.985 552.872 689.627 557.122 682.629 560.022C675.631 562.922 668.13 564.414 660.555 564.414C652.98 564.414 645.48 562.922 638.482 560.022C631.483 557.122 625.125 552.872 619.77 547.515C611.725 539.464 606.24 529.213 604.007 518.053C601.774 506.892 602.893 495.321 607.221 484.794L529.437 407.01L529.425 611.731C535.068 614.51 540.221 618.191 544.68 622.629C567.202 645.145 567.202 681.635 544.68 704.199C522.152 726.715 485.638 726.715 463.134 704.199C440.611 681.641 440.611 645.151 463.134 622.629C468.53 617.224 474.948 612.948 482.014 610.05V403.433C474.942 400.543 468.522 396.263 463.134 390.848C446.072 373.799 441.965 348.761 450.716 327.8L365.39 242.474L140.096 467.757C131.006 476.849 125.9 489.179 125.9 502.035C125.9 514.891 131.006 527.221 140.096 536.313L468.672 864.871C487.593 883.793 518.271 883.793 537.222 864.871L864.254 537.839C873.342 528.744 878.446 516.413 878.445 503.557C878.444 490.7 873.337 478.37 864.248 469.277Z" fill="url(#paint0_linear_530_428)"/>
<defs>
<linearGradient id="paint0_linear_530_428" x1="238.821" y1="217.526" x2="692.935" y2="702.499" gradientUnits="userSpaceOnUse">
<stop offset="0.126086" stop-color="#E26B3B"/>
<stop offset="0.938263" stop-color="#9A3A24"/>
</linearGradient>
</defs>
</svg>
