<svg width="1006" height="1006" viewBox="0 0 1006 1006" fill="none" xmlns="http://www.w3.org/2000/svg">
<path d="M500.965 98.8677C447.255 99.0189 394.103 109.759 344.548 130.475C294.994 151.19 250.01 181.474 212.172 219.593C174.334 257.712 144.384 302.918 124.036 352.625C103.688 402.331 93.341 455.562 93.5873 509.271C93.3994 595.163 120.184 678.945 170.161 748.799C220.139 818.653 290.788 871.052 372.14 898.605C392.371 902.682 399.794 889.771 399.794 878.9C399.794 869.387 399.121 836.779 399.121 802.805C285.809 827.266 262.206 753.876 262.206 753.876C244.002 706.313 217.021 694.082 217.021 694.082C179.926 668.942 219.713 668.942 219.713 668.942C260.86 671.66 282.437 711.069 282.437 711.069C318.859 773.587 377.544 755.921 401.153 745.049C402.848 724.232 411.939 704.708 426.781 690.012C336.404 680.499 241.296 645.173 241.296 487.528C240.808 446.867 255.752 407.532 283.116 377.453C279.065 367.261 264.911 325.127 287.174 268.737C287.174 268.737 321.558 257.859 399.127 310.864C432.334 301.882 466.578 297.313 500.978 297.275C535.378 297.313 569.623 301.882 602.829 310.864C680.392 257.859 714.795 268.73 714.795 268.73C737.051 325.127 722.885 367.261 718.834 377.453C734.487 394.344 746.165 414.522 753.012 436.51C763.512 428.692 776.255 424.477 789.345 424.491C798.599 424.504 807.73 426.601 816.063 430.625L873.805 458.548C877.046 460.105 880.654 460.739 884.232 460.381C887.81 460.022 891.219 458.685 894.087 456.516C896.956 454.346 899.171 451.428 900.489 448.082C901.808 444.736 902.179 441.091 901.561 437.548C885.358 342.964 836.295 257.133 763.015 195.176C689.734 133.219 596.94 99.1108 500.978 98.8613L500.965 98.8677Z" fill="url(#paint0_radial_530_364)"/>
<path d="M244.305 686.77C243.387 688.801 240.169 689.404 237.25 688.016C234.254 686.675 232.592 683.926 233.558 681.886C234.428 679.817 237.656 679.232 240.642 680.621C243.638 681.962 245.329 684.74 244.305 686.77ZM260.956 705.199C258.995 706.99 255.158 706.157 252.549 703.302C249.862 700.458 249.359 696.655 251.35 694.835C253.36 693.035 257.081 693.877 259.758 696.722C262.464 699.596 262.996 703.36 260.947 705.189L260.956 705.199ZM277.163 728.646C274.651 730.39 270.524 728.761 267.982 725.131C265.45 721.52 265.45 717.181 268.031 715.428C270.582 713.685 274.641 715.256 277.212 718.848C279.744 722.535 279.744 726.884 277.163 728.646ZM299.372 751.327C297.12 753.789 292.317 753.128 288.809 749.766C285.214 746.481 284.218 741.816 286.47 739.355C288.76 736.893 293.583 737.583 297.12 740.916C300.696 744.192 301.778 748.875 299.372 751.327ZM330.027 764.488C329.022 767.687 324.402 769.133 319.744 767.783C315.086 766.384 312.051 762.649 312.979 759.431C313.945 756.212 318.604 754.709 323.291 756.155C327.929 757.534 330.983 761.231 330.027 764.488ZM363.658 766.93C363.784 770.283 359.831 773.08 354.941 773.137C350.032 773.252 346.05 770.532 345.992 767.218C345.992 763.827 349.858 761.069 354.767 760.992C359.657 760.896 363.658 763.597 363.658 766.93ZM394.97 761.653C395.55 764.929 392.168 768.3 387.306 769.191C382.532 770.072 378.125 768.041 377.507 764.785C376.927 761.432 380.377 758.08 385.142 757.199C390.003 756.356 394.352 758.32 394.97 761.653Z" fill="url(#paint1_radial_530_364)"/>
<path fill-rule="evenodd" clip-rule="evenodd" d="M780.598 905.219C784.169 906.611 787.988 907.254 791.819 907.107C795.649 906.959 799.408 906.026 802.861 904.363L895.257 859.903C900.015 857.612 904.03 854.025 906.84 849.554C909.649 845.082 911.14 839.908 911.139 834.628V533.165C911.14 527.884 909.65 522.709 906.841 518.237C904.031 513.765 900.016 510.177 895.257 507.887L802.861 463.433C797.64 460.921 791.768 460.094 786.056 461.066C780.344 462.039 775.076 464.762 770.981 468.86L594.1 630.231L517.057 571.746C513.582 569.107 509.292 567.768 504.933 567.962C500.574 568.155 496.419 569.869 493.191 572.805L468.481 595.282C466.555 597.034 465.016 599.168 463.962 601.548C462.909 603.928 462.363 606.502 462.361 609.106C462.359 611.709 462.901 614.284 463.951 616.665C465.001 619.047 466.537 621.184 468.46 622.938L535.275 683.895L468.463 744.855C466.541 746.609 465.006 748.746 463.957 751.127C462.908 753.509 462.366 756.083 462.368 758.686C462.37 761.288 462.915 763.861 463.968 766.241C465.021 768.621 466.56 770.755 468.484 772.507L493.195 794.984C496.422 797.922 500.576 799.636 504.936 799.83C509.295 800.024 513.585 798.686 517.061 796.047L594.103 737.566L770.984 898.932C773.719 901.672 776.991 903.813 780.598 905.219ZM799.012 582.019L664.803 683.895L799.015 785.774L799.012 582.019Z" fill="white"/>
<path d="M895.261 507.963L802.792 463.435C797.569 460.922 791.694 460.094 785.98 461.066C780.266 462.038 774.995 464.763 770.898 468.863L468.191 744.857C466.267 746.611 464.731 748.747 463.681 751.129C462.63 753.51 462.089 756.085 462.091 758.688C462.093 761.291 462.638 763.865 463.692 766.245C464.746 768.625 466.286 770.758 468.212 772.509L492.936 794.987C496.167 797.924 500.323 799.638 504.684 799.832C509.046 800.026 513.338 798.688 516.816 796.049L881.346 519.508C893.575 510.231 911.14 518.954 911.14 534.304V533.231C911.14 527.951 909.65 522.778 906.841 518.308C904.032 513.837 900.018 510.254 895.261 507.963Z" fill="#0065A9"/>
<path d="M895.261 859.831L802.792 904.351C797.57 906.866 791.695 907.695 785.981 906.724C780.267 905.753 774.996 903.029 770.898 898.931L468.191 622.933C466.267 621.179 464.731 619.043 463.681 616.662C462.63 614.28 462.089 611.705 462.091 609.102C462.093 606.499 462.638 603.925 463.692 601.545C464.746 599.165 466.286 597.032 468.212 595.281L492.936 572.803C496.167 569.866 500.323 568.152 504.684 567.958C509.046 567.764 513.338 569.102 516.816 571.741L881.346 848.279C893.575 857.559 911.14 848.836 911.14 833.486V834.559C911.14 839.839 909.65 845.012 906.841 849.482C904.032 853.953 900.018 857.54 895.261 859.831Z" fill="#007ACC"/>
<path d="M802.796 904.362C797.572 906.874 791.696 907.701 785.981 906.728C780.267 905.755 774.996 903.03 770.897 898.931C781.247 909.281 798.946 901.95 798.946 887.312V480.471C798.946 465.833 781.247 458.502 770.897 468.856C774.996 464.756 780.267 462.032 785.981 461.059C791.696 460.086 797.572 460.913 802.796 463.425L895.247 507.889C900.008 510.178 904.025 513.765 906.837 518.237C909.649 522.71 911.14 527.885 911.14 533.167V834.626C911.14 839.909 909.649 845.084 906.837 849.556C904.025 854.028 900.008 857.616 895.247 859.905L802.796 904.362Z" fill="#1F9CF0"/>
<path opacity="0.25" fill-rule="evenodd" clip-rule="evenodd" d="M780.329 905.219C783.9 906.611 787.719 907.253 791.548 907.106C795.378 906.958 799.136 906.025 802.589 904.363L894.985 859.903C899.743 857.612 903.759 854.024 906.568 849.552C909.378 845.08 910.868 839.905 910.867 834.624V533.165C910.868 527.884 909.378 522.709 906.568 518.237C903.759 513.765 899.743 510.177 894.985 507.887L802.589 463.433C797.368 460.921 791.496 460.094 785.784 461.066C780.072 462.039 774.804 464.762 770.708 468.86L593.827 630.231L516.785 571.75C513.31 569.111 509.02 567.772 504.661 567.965C500.301 568.159 496.147 569.872 492.919 572.808L468.208 595.286C466.283 597.038 464.745 599.172 463.691 601.552C462.638 603.932 462.093 606.506 462.091 609.109C462.089 611.712 462.63 614.287 463.68 616.669C464.73 619.05 466.265 621.187 468.187 622.942L535.003 683.895L468.191 744.851C466.268 746.606 464.732 748.742 463.682 751.124C462.632 753.506 462.091 756.081 462.093 758.684C462.095 761.287 462.64 763.861 463.694 766.241C464.747 768.621 466.286 770.756 468.212 772.507L492.923 794.984C496.15 797.921 500.304 799.635 504.664 799.829C509.023 800.023 513.313 798.685 516.789 796.047L593.834 737.562L770.715 898.932C773.449 901.672 776.723 903.813 780.329 905.219ZM798.743 582.015L664.531 683.895L798.743 785.77V582.015Z" fill="url(#paint2_linear_530_364)" style="mix-blend-mode:overlay"/>
<defs>
<radialGradient id="paint0_radial_530_364" cx="0" cy="0" r="1" gradientUnits="userSpaceOnUse" gradientTransform="translate(497.717 499.118) rotate(90) scale(400.257 404.134)">
<stop offset="0.533654" stop-color="#0D29E3"/>
<stop offset="1" stop-color="#070F56"/>
</radialGradient>
<radialGradient id="paint1_radial_530_364" cx="0" cy="0" r="1" gradientUnits="userSpaceOnUse" gradientTransform="translate(314.159 726.503) rotate(90) scale(46.6377 80.8758)">
<stop offset="0.533654" stop-color="#0D29E3"/>
<stop offset="1" stop-color="#070F56"/>
</radialGradient>
<linearGradient id="paint2_linear_530_364" x1="686.479" y1="460.663" x2="686.479" y2="907.126" gradientUnits="userSpaceOnUse">
<stop stop-color="white"/>
<stop offset="1" stop-color="white" stop-opacity="0"/>
</linearGradient>
</defs>
</svg>
