<svg width="1008" height="1008" viewBox="0 0 1008 1008" fill="none" xmlns="http://www.w3.org/2000/svg">
<path d="M330.175 206.754C261.862 206.754 206.22 262.396 206.22 330.709C206.22 390.535 248.897 440.649 305.389 452.173V628.209C305.389 682.921 350.386 727.379 404.55 727.379H405.456C411.509 769.322 447.757 801.754 491.327 801.754C539.104 801.754 578.095 762.763 578.095 714.986C578.095 667.21 539.104 628.209 491.327 628.209C447.762 628.209 411.513 660.641 405.456 702.584H404.55C363.937 702.584 330.175 669.339 330.175 628.209V503.227C338.197 511.412 347.774 517.913 358.342 522.347C368.911 526.781 380.259 529.06 391.72 529.049H405.456C411.513 570.992 447.757 603.424 491.327 603.424C534.892 603.424 571.136 570.992 577.184 529.049H628.581C634.638 570.992 670.882 603.424 714.452 603.424C762.229 603.424 801.22 564.423 801.22 516.647C801.22 468.87 762.229 429.879 714.452 429.879C670.882 429.879 634.634 462.311 628.581 504.254H577.188C571.141 462.311 534.897 429.879 491.327 429.879C447.757 429.879 411.509 462.311 405.456 504.254H391.72C361.817 504.254 336.901 482.922 331.346 454.646C399.121 454.014 454.139 398.632 454.139 330.709C454.139 262.396 398.488 206.754 330.175 206.754ZM330.175 231.549C343.205 231.523 356.111 234.07 368.154 239.044C380.197 244.018 391.139 251.321 400.353 260.534C409.566 269.747 416.87 280.689 421.846 292.731C426.821 304.773 429.369 317.68 429.345 330.709C429.369 343.739 426.821 356.646 421.846 368.689C416.871 380.732 409.567 391.674 400.353 400.887C391.14 410.101 380.197 417.405 368.155 422.38C356.112 427.355 343.205 429.903 330.175 429.879C317.145 429.903 304.239 427.355 292.197 422.38C280.154 417.405 269.213 410.101 260 400.887C250.787 391.673 243.484 380.731 238.51 368.688C233.536 356.645 230.989 343.739 231.014 330.709C230.989 317.68 233.536 304.774 238.51 292.732C243.484 280.689 250.788 269.748 260.001 260.535C269.214 251.322 280.155 244.019 292.197 239.044C304.24 234.07 317.146 231.523 330.175 231.549ZM305.933 266.603C293.006 266.668 280.595 277.052 280.595 291.197V370.421C280.595 389.214 302.484 401.393 318.456 391.492L381.833 352.19C396.973 342.8 397.052 319.641 381.982 310.144L318.6 270.214C314.812 267.82 310.415 266.566 305.933 266.603ZM305.389 291.197L368.771 331.118L305.389 370.421V291.197ZM491.327 454.674C499.473 454.648 507.543 456.233 515.073 459.339C522.604 462.444 529.446 467.008 535.206 472.768C540.966 478.528 545.53 485.37 548.635 492.9C551.74 500.431 553.326 508.501 553.3 516.647C553.325 524.793 551.739 532.863 548.634 540.394C545.529 547.925 540.965 554.767 535.205 560.528C529.446 566.288 522.604 570.853 515.073 573.959C507.543 577.066 499.473 578.653 491.327 578.629C483.18 578.653 475.11 577.067 467.578 573.961C460.047 570.855 453.205 566.29 447.444 560.529C441.684 554.769 437.119 547.926 434.013 540.395C430.907 532.864 429.32 524.793 429.345 516.647C429.321 508.501 430.908 500.43 434.014 492.9C437.121 485.37 441.686 478.528 447.446 472.768C453.207 467.009 460.049 462.445 467.58 459.34C475.111 456.234 483.181 454.649 491.327 454.674ZM714.452 454.674C722.598 454.648 730.668 456.233 738.198 459.339C745.729 462.444 752.571 467.008 758.331 472.768C764.091 478.528 768.655 485.37 771.76 492.9C774.865 500.431 776.451 508.501 776.425 516.647C776.45 524.793 774.864 532.863 771.759 540.394C768.654 547.925 764.09 554.767 758.33 560.528C752.571 566.288 745.729 570.853 738.198 573.959C730.668 577.066 722.598 578.653 714.452 578.629C706.305 578.653 698.235 577.067 690.703 573.961C683.172 570.855 676.33 566.29 670.569 560.529C664.809 554.769 660.244 547.926 657.138 540.395C654.032 532.864 652.445 524.793 652.47 516.647C652.446 508.501 654.033 500.43 657.139 492.9C660.246 485.37 664.811 478.528 670.571 472.768C676.332 467.009 683.174 462.445 690.705 459.34C698.236 456.234 706.306 454.649 714.452 454.674ZM516.577 486.985C514.949 486.984 513.336 487.303 511.831 487.925C510.326 488.547 508.958 489.46 507.806 490.611L478.521 519.868L468.791 510.181C466.463 507.86 463.308 506.56 460.021 506.565C456.734 506.57 453.583 507.881 451.262 510.209C450.113 511.362 449.203 512.731 448.583 514.236C447.963 515.742 447.645 517.355 447.649 518.983C447.652 520.611 447.977 522.223 448.603 523.726C449.229 525.229 450.145 526.594 451.299 527.742L469.772 546.15C472.097 548.467 475.245 549.767 478.526 549.766C481.808 549.765 484.955 548.463 487.278 546.146L525.326 508.149C526.478 506.999 527.392 505.632 528.016 504.128C528.64 502.625 528.961 501.012 528.962 499.384C528.963 497.756 528.643 496.144 528.021 494.639C527.398 493.134 526.486 491.767 525.335 490.615C523.011 488.295 519.862 486.986 516.577 486.985ZM739.702 486.985C738.074 486.984 736.461 487.303 734.956 487.925C733.451 488.547 732.083 489.46 730.931 490.611L701.646 519.868L691.916 510.181C689.588 507.86 686.433 506.56 683.146 506.565C679.859 506.57 676.708 507.881 674.387 510.209C673.238 511.362 672.328 512.731 671.708 514.236C671.088 515.742 670.77 517.355 670.774 518.983C670.777 520.611 671.101 522.223 671.728 523.726C672.354 525.229 673.27 526.594 674.424 527.742L692.897 546.15C695.222 548.467 698.37 549.767 701.651 549.766C704.933 549.765 708.08 548.463 710.403 546.146L748.451 508.149C749.603 506.999 750.517 505.632 751.141 504.128C751.765 502.625 752.086 501.012 752.087 499.384C752.088 497.756 751.768 496.144 751.146 494.639C750.523 493.134 749.611 491.767 748.46 490.615C746.136 488.295 742.987 486.986 739.702 486.985ZM491.327 653.004C499.473 652.98 507.543 654.567 515.073 657.673C522.604 660.78 529.446 665.345 535.205 671.105C540.965 676.866 545.529 683.708 548.634 691.239C551.739 698.77 553.325 706.84 553.3 714.986C553.326 723.132 551.74 731.202 548.635 738.733C545.53 746.263 540.966 753.105 535.206 758.865C529.446 764.625 522.604 769.189 515.073 772.294C507.543 775.4 499.473 776.985 491.327 776.959C483.181 776.984 475.111 775.399 467.58 772.293C460.049 769.188 453.207 764.624 447.446 758.864C441.686 753.105 437.121 746.263 434.014 738.733C430.908 731.202 429.321 723.132 429.345 714.986C429.32 706.84 430.907 698.769 434.013 691.238C437.119 683.706 441.684 676.864 447.444 671.103C453.205 665.343 460.047 660.778 467.578 657.672C475.11 654.566 483.18 652.979 491.327 653.004ZM466.532 696.392C456.338 696.392 447.938 704.792 447.938 714.986C447.938 725.189 456.343 733.58 466.532 733.58C476.722 733.58 485.126 725.189 485.126 714.986C485.126 704.792 476.726 696.392 466.532 696.392ZM516.112 696.392C505.918 696.392 497.519 704.792 497.519 714.986C497.519 725.189 505.923 733.58 516.112 733.58C526.302 733.58 534.706 725.189 534.706 714.986C534.706 704.792 526.306 696.392 516.112 696.392ZM466.532 708.785C470.019 708.785 472.733 711.504 472.733 714.986C472.733 718.486 470.023 721.178 466.532 721.178C463.046 721.178 460.331 718.482 460.331 714.986C460.331 711.5 463.051 708.785 466.532 708.785ZM516.112 708.785C519.599 708.785 522.313 711.504 522.313 714.986C522.313 718.486 519.603 721.178 516.112 721.178C512.626 721.178 509.921 718.482 509.921 714.986C509.921 711.5 512.631 708.785 516.112 708.785Z" fill="#2088FF"/>
<path d="M714.451 628.209C670.835 628.209 634.554 660.715 628.562 702.728C628.152 702.691 627.741 702.674 627.33 702.677L614.779 703.095C611.495 703.203 608.387 704.611 606.14 707.009C603.893 709.407 602.69 712.599 602.795 715.883C602.903 719.168 604.312 722.276 606.711 724.524C609.109 726.771 612.303 727.973 615.588 727.867L628.139 727.462C628.289 727.456 628.439 727.447 628.59 727.435C634.665 769.349 670.9 801.754 714.451 801.754C762.228 801.754 801.219 762.763 801.219 714.986C801.219 667.209 762.228 628.209 714.451 628.209ZM714.451 653.004C722.597 652.98 730.667 654.567 738.197 657.673C745.728 660.78 752.569 665.345 758.329 671.105C764.089 676.866 768.652 683.708 771.758 691.239C774.863 698.77 776.449 706.84 776.424 714.986C776.45 723.132 774.864 731.202 771.759 738.732C768.654 746.263 764.09 753.105 758.33 758.865C752.57 764.625 745.728 769.189 738.197 772.294C730.667 775.399 722.597 776.985 714.451 776.959C706.305 776.984 698.235 775.398 690.704 772.293C683.173 769.188 676.33 764.624 670.57 758.864C664.809 753.105 660.245 746.263 657.138 738.732C654.032 731.202 652.445 723.132 652.469 714.986C652.444 706.839 654.031 698.769 657.137 691.237C660.243 683.706 664.808 676.864 670.568 671.103C676.329 665.343 683.171 660.778 690.702 657.672C698.233 654.566 706.304 652.979 714.451 653.004Z" fill="#79B8FF"/>
</svg>
