<svg width="1008" height="1008" viewBox="0 0 1008 1008" fill="none" xmlns="http://www.w3.org/2000/svg">
<path d="M788.294 689.474C744.212 688.499 703.999 675.91 670.092 646.839C641.509 622.14 623.588 590.648 617.777 553.344C609.057 498.607 624.068 450.161 657.015 407.054C692.377 360.542 735.004 336.323 792.658 326.148C842.063 317.435 888.575 322.279 930.715 350.854C968.986 377.016 992.717 412.377 999.016 458.881C1007.25 524.281 988.361 577.571 943.304 623.107C911.332 655.559 872.094 675.91 827.044 685.11C813.968 687.532 800.883 688.019 788.294 689.474ZM903.586 493.763C903.107 487.465 903.107 482.621 902.132 477.777C893.419 429.818 849.329 402.69 803.313 413.353C758.256 423.52 729.193 452.103 718.538 497.64C709.818 535.423 728.226 573.694 763.1 589.193C789.749 600.823 816.39 599.368 842.063 586.291C880.334 566.428 901.165 535.423 903.586 493.763Z" fill="url(#paint0_radial_499_285)"/>
<path fill-rule="evenodd" clip-rule="evenodd" d="M81.0462 430.311C79.1039 430.311 78.6243 429.336 79.5915 427.889L89.7667 414.805C90.7259 413.35 93.1558 412.383 95.0901 412.383H268.037C269.979 412.383 270.459 413.837 269.492 415.292L261.259 427.889C260.292 429.336 257.87 430.791 256.415 430.791L81.0462 430.311ZM7.89335 474.873C5.95902 474.873 5.47144 473.914 6.4386 472.451L16.6138 459.374C17.581 457.919 20.0029 456.952 21.9452 456.952H242.843C244.777 456.952 245.752 458.407 245.264 459.862L241.388 471.484C240.908 473.426 238.966 474.393 237.032 474.393L7.89335 474.873ZM125.12 519.442C123.186 519.442 122.706 517.987 123.673 516.533L130.452 504.423C131.427 502.968 133.361 501.522 135.303 501.522H232.18C234.122 501.522 235.089 502.968 235.089 504.911L234.13 516.533C234.13 518.475 232.188 519.93 230.733 519.93L125.12 519.442ZM627.966 421.591C597.441 429.344 576.611 435.155 546.58 442.9C539.307 444.843 538.827 445.322 532.529 438.056C525.263 429.824 519.931 424.492 509.764 419.648C479.239 404.637 449.688 408.994 422.08 426.922C389.14 448.232 372.187 479.717 372.666 518.955C373.146 557.713 399.795 589.686 438.066 595.017C471.006 599.373 498.622 587.743 520.419 563.045C524.775 557.713 528.652 551.902 533.496 545.116H440C429.833 545.116 427.411 538.818 430.8 530.585C437.099 515.566 448.721 490.379 455.499 477.782C456.962 474.873 460.351 470.029 467.617 470.029H643.944C642.985 483.114 642.985 496.19 641.043 509.275C635.712 544.149 622.635 576.121 601.317 604.217C566.435 650.241 520.907 678.817 463.252 686.57C415.781 692.869 371.699 683.661 332.949 654.598C297.1 627.469 276.757 591.62 271.426 547.058C265.127 494.256 280.626 446.777 312.598 405.117C346.993 360.068 392.529 331.484 448.241 321.309C493.778 313.076 537.372 318.408 576.61 345.049C602.284 362.002 620.692 385.254 632.802 413.35C635.711 417.714 633.777 420.136 627.958 421.583L627.966 421.591Z" fill="url(#paint1_linear_499_285)"/>
<defs>
<radialGradient id="paint0_radial_499_285" cx="0" cy="0" r="1" gradientUnits="userSpaceOnUse" gradientTransform="translate(808.322 505.658) rotate(48.5763) scale(266.75 294.895)">
<stop offset="0.433269" stop-color="#00ACD7"/>
<stop offset="0.966346" stop-color="#55749C"/>
</radialGradient>
<linearGradient id="paint1_linear_499_285" x1="497.296" y1="503.61" x2="-77.6958" y2="503.61" gradientUnits="userSpaceOnUse">
<stop stop-color="#00ACD7"/>
<stop offset="1" stop-color="#013C64"/>
</linearGradient>
</defs>
</svg>
