<svg width="1006" height="1020" viewBox="0 0 1006 1020" fill="none" xmlns="http://www.w3.org/2000/svg">
<g clip-path="url(#clip0_589_260)">
<path d="M382.236 678.807C382.236 678.807 348.488 699.33 405.695 705.201C474.564 713.981 511.247 712.527 587.469 697.876C602.788 707.257 618.989 715.114 635.841 721.335C464.357 794.648 247.354 716.945 382.236 678.807ZM360.286 583.516C360.286 583.516 323.63 611.365 380.81 617.264C455.577 624.59 514.211 626.044 615.4 605.548C625.241 615.529 637.29 623.057 650.575 627.526C443.861 689.096 212.234 633.37 360.286 583.516ZM764.907 750.611C764.907 750.611 789.82 771.134 737.058 787.267C638.832 816.625 325.112 825.405 237.147 787.267C206.362 774.097 264.996 755.028 283.791 752.092C302.86 747.702 313.149 747.702 313.149 747.702C279.401 724.243 88.8472 796.074 216.404 816.57C566.781 873.75 855.588 791.657 764.688 750.611H764.907ZM398.095 483.808C398.095 483.808 238.299 521.946 340.916 535.116C384.898 540.988 471.381 539.506 552.02 533.662C617.979 527.791 683.994 516.102 683.994 516.102C683.994 516.102 660.535 526.364 644.402 536.625C481.697 579.154 169.404 560.084 258.85 516.102C335.071 479.446 398.123 483.863 398.123 483.863L398.095 483.808ZM683.994 643.604C848.18 558.548 771.959 476.51 719.169 486.744C705.999 489.68 700.1 492.616 700.1 492.616C700.1 492.616 704.49 483.836 714.751 480.9C818.849 444.243 900.942 590.842 681.003 647.994C681.003 647.994 682.458 646.54 683.939 643.604H683.994ZM414.283 875.232C572.598 885.493 814.514 869.36 820.358 794.565C820.358 794.565 808.643 823.924 689.893 845.874C555.01 870.787 387.889 867.823 289.662 851.745C289.662 851.745 310.186 869.333 414.283 875.232Z" fill="url(#paint0_linear_589_260)"/>
<path d="M584.573 0.0273438C584.573 0.0273438 675.473 92.3819 498.09 231.655C355.881 344.533 465.851 409.038 498.09 482.351C414.515 407.584 354.427 341.597 395.474 280.054C455.562 189.127 621.23 145.419 584.573 0.0273438ZM537.929 420.781C580.457 469.154 526.213 513.136 526.213 513.136C526.213 513.136 634.701 457.438 584.847 388.515C539.411 322.555 504.181 290.289 694.789 180.347C694.789 180.347 394.267 255.114 537.929 420.781Z" fill="url(#paint1_linear_589_260)"/>
</g>
<defs>
<linearGradient id="paint0_linear_589_260" x1="497.084" y1="565.601" x2="497.084" y2="1062.63" gradientUnits="userSpaceOnUse">
<stop stop-color="#4E7896"/>
<stop offset="1" stop-color="#192630"/>
</linearGradient>
<linearGradient id="paint1_linear_589_260" x1="538.112" y1="121.912" x2="538.112" y2="453.067" gradientUnits="userSpaceOnUse">
<stop stop-color="#F58219"/>
<stop offset="1" stop-color="#8F4C0F"/>
</linearGradient>
<clipPath id="clip0_589_260">
<rect width="878" height="878" fill="white" transform="translate(63.3594)"/>
</clipPath>
</defs>
</svg>
