<svg width="1006" height="1006" viewBox="0 0 1006 1006" fill="none" xmlns="http://www.w3.org/2000/svg">
<path d="M586.949 913.363C813.893 913.363 997.867 729.389 997.867 502.445C997.867 275.502 813.893 91.5273 586.949 91.5273C360.006 91.5273 176.031 275.502 176.031 502.445C176.031 729.389 360.006 913.363 586.949 913.363Z" fill="url(#paint0_linear_546_544)"/>
<path opacity="0.3" d="M997.462 491.091C995.361 598.605 951.198 701.013 874.45 776.336C797.703 851.659 694.486 893.895 586.951 893.981C479.974 893.916 377.24 852.135 300.582 777.517C223.925 702.899 179.389 601.329 176.44 494.392C176.28 497.071 176.146 499.75 176.039 502.431C176.039 611.413 219.332 715.932 296.394 792.994C373.456 870.056 477.975 913.349 586.957 913.349C640.92 913.349 694.354 902.72 744.209 882.07C794.063 861.419 839.363 831.151 877.52 792.994C915.677 754.837 945.945 709.537 966.596 659.683C987.246 609.828 997.875 556.394 997.875 502.431C997.794 498.646 997.66 494.863 997.474 491.082L997.462 491.091Z" fill="black"/>
<path opacity="0.1" d="M586.949 91.5312C477.967 91.5313 373.448 134.824 296.386 211.886C219.324 288.948 176.031 393.467 176.031 502.449C176.113 506.228 176.246 510.005 176.432 513.779C178.539 406.269 222.704 303.867 299.452 228.549C376.199 153.231 479.412 110.997 586.943 110.911C693.916 110.977 796.648 152.755 873.304 227.368C949.96 301.98 994.499 403.545 997.454 510.478C997.614 507.806 997.748 505.132 997.855 502.458C997.855 448.495 987.226 395.061 966.576 345.206C945.925 295.351 915.657 250.052 877.5 211.895C839.343 173.738 794.043 143.47 744.189 122.819C694.334 102.169 640.9 91.5398 586.937 91.5398L586.949 91.5312Z" fill="white"/>
<path opacity="0.3" d="M170.746 222.543C104.214 222.619 60.2667 227.975 59.9027 228.02C59.9012 228.02 59.6509 228.042 59.6509 228.042C55.3075 228.542 55.8597 235.013 60.2251 234.769C60.2251 234.769 302.136 223.34 496.04 301.273C502.958 330.871 521.228 376.238 532.021 400.353C517.328 410.437 501.566 420.673 488.598 436.917C474.985 453.969 464.698 477.5 461.958 513.482C456.401 586.469 518.998 650.363 596.42 652.333C668.213 656.155 717.024 656.682 776.446 687.48C804.196 702.842 830.043 734.421 849.345 772.996C868.659 811.592 881.473 857.127 883.773 900.068C883.988 904.288 890.192 904.366 890.512 900.152C890.524 900.022 890.508 899.842 890.517 899.711C893.01 866.83 888.154 815.933 868.443 767.515C851.933 726.959 824.656 688.348 782.718 664.132C842.992 680.591 877.497 711.182 897.333 739.133C920.093 771.205 923.453 799.749 923.435 799.591C923.914 803.626 929.801 803.533 930.152 799.485C930.152 799.485 933.144 764.496 909.002 725.946C884.858 687.396 833.606 645.257 726.757 629.577C699.692 625.606 665.535 622.554 630.922 622.467C630.904 622.467 630.887 622.467 630.869 622.467C547.107 623.574 504.88 575.833 498.307 526.863C495.019 502.377 500.769 477.576 514.992 458.357C529.216 439.139 551.853 425.379 583.043 422.941H583.057C634.268 418.716 696.728 446.411 758.151 474.991C758.09 482.089 758.719 489.248 763.906 495.731C767.379 500.073 773.645 503.089 780.022 506.101C786.398 509.113 792.96 511.842 795.564 513.336C801.483 516.733 821.227 529.398 832.866 544.548C834.36 546.495 837.366 546.249 838.523 544.084C838.584 543.971 840.353 541.931 842.688 539.977C845.023 538.023 847.986 535.796 850.872 533.719C856.643 529.563 862.108 526.003 862.108 526.003C864.952 524.149 863.59 519.729 860.195 519.798C860.195 519.798 859.366 519.844 856.715 519.338C854.064 518.832 849.85 517.768 843.854 515.527C838.336 513.465 831.745 509 826.66 504.963C824.118 502.944 821.93 501.035 820.384 499.605C820.2 499.434 820.122 499.351 819.956 499.195C821.572 497.741 821.793 495.418 821.467 493.957C821.133 492.464 820.482 491.253 819.753 490.074C818.295 487.719 816.442 485.619 815.16 484.337L815.155 484.333C815.341 484.518 814.776 483.858 814.206 483.026C813.633 482.19 812.897 481.061 812.068 479.757C810.411 477.151 808.378 473.836 806.402 470.571C802.448 464.04 798.881 457.97 798.536 457.392C798.531 457.383 797.677 455.585 796.019 454.477C795.758 454.303 795.474 454.166 795.175 454.071C793.303 453.469 791.818 453.61 789.897 453.709C787.976 453.807 785.844 454.034 783.824 454.292C780.445 454.723 778.348 455.104 777.433 455.263C775.149 454.058 757.292 444.167 750.73 424.012C749.52 420.316 744.048 421.259 744.145 425.148C744.181 426.472 742.178 430.418 742.613 436.388C734.679 431.607 727.853 424.011 721.908 408.364C720.816 405.478 716.746 405.447 715.61 408.315C713.333 414.041 713.195 418.832 713.658 422.545C706.122 419.002 693.782 411.204 691.094 395.706C690.517 392.39 685.975 391.867 684.659 394.964C682.442 400.189 682.246 404.514 682.618 407.998C668.574 401.974 629.895 387.888 572.169 387.576C561.028 386.552 552.173 380.977 544.9 372.617C537.627 364.255 532.104 353.11 528.192 341.57C524.281 330.028 521.969 318.098 520.923 308.257C519.877 298.415 520.317 290.278 521.047 287.945C521.534 286.39 520.841 284.708 519.399 283.948C519.399 283.948 448.809 246.813 310.811 230.489C259.068 224.369 210.838 222.498 170.752 222.544L170.746 222.543ZM331.902 296.082C310.875 296.241 288.304 297.024 264.588 298.71C137.898 307.715 10.3537 351.979 10.3537 351.979C6.2737 353.387 8.09945 359.503 12.2837 358.445C12.2837 358.445 272.42 293.155 489.728 331.425C489.921 331.459 490.116 331.477 490.311 331.478H490.32C492.595 331.477 494.218 329.273 493.544 327.101L487.865 308.772C487.491 307.563 486.473 306.665 485.228 306.444C485.228 306.444 423.009 295.399 331.907 296.083C331.898 296.083 331.889 296.083 331.881 296.083L331.902 296.082ZM486.371 335.121C464.011 335.026 395.208 337.843 291.866 370.179C162.173 410.76 88.3562 468.452 88.3562 468.452C85.1036 471.024 88.454 476.062 92.0837 474.056C92.0837 474.056 284.117 366.956 500.379 360.878C502.638 360.812 504.196 358.589 503.488 356.443L497.274 337.633C496.843 336.329 495.664 335.415 494.293 335.323C494.293 335.323 491.539 335.142 486.378 335.12L486.371 335.121ZM627.771 334.807C624.458 334.855 623.189 339.148 625.942 340.99H625.947C626.145 341.123 626.357 341.234 626.578 341.321C685.885 365.433 737.324 397.304 777.199 441.114C777.235 441.153 777.272 441.191 777.31 441.228L777.314 441.233C778.001 441.919 778.951 442.277 779.92 442.213L789.596 441.582C792.342 441.401 793.73 438.189 791.981 436.066C791.981 436.066 735.952 368.164 629.122 335.073C629.111 335.068 629.1 335.059 629.087 335.055C629.033 335.034 628.979 335.015 628.924 334.997C628.893 334.986 628.862 334.977 628.831 334.966C628.488 334.857 628.13 334.803 627.771 334.807ZM796.642 477.776C798.582 478.167 802.242 485.367 805.603 490.509C805.899 490.927 806.199 491.372 806.482 491.723C806.482 491.755 806.487 491.777 806.509 491.807C806.889 492.349 807.267 492.911 807.631 493.362C807.814 494.437 808.12 495.094 805.603 494.576C805.391 493.471 805.029 493.15 805.029 493.15C805.029 493.15 798.955 489.539 797.093 486.975C795.229 484.412 794.904 479.931 795.812 478.231C796.032 477.851 796.312 477.713 796.642 477.776Z" fill="black"/>
<path d="M170.748 212.342C104.122 212.418 60.0612 217.816 60.0612 217.816C60.0612 217.816 303.668 206.123 498.815 285.131C505.449 314.804 525.406 364.221 536.156 387.976C505.398 409.241 470.715 429.242 465.315 500.162C459.915 571.08 520.888 633.457 596.498 635.382C668.295 639.206 717.901 639.751 778.026 670.924C835.417 702.659 882.478 799.351 887.134 886.315C892.164 821.792 867.948 683.038 754.956 640.899C912.852 668.53 926.772 785.559 926.776 785.607C926.776 785.607 938.548 650.487 726.254 619.333C699.347 615.386 665.319 612.346 630.901 612.26C460.749 614.509 454.546 416.013 582.763 405.991C635.9 401.607 699.345 430.273 761.371 459.158C761.141 466.862 761.463 473.707 766.524 480.033C771.584 486.357 791.018 493.255 797.23 496.819C803.44 500.383 823.336 513.035 835.529 528.904C838.173 523.958 860.251 509.585 860.251 509.585C860.251 509.585 854.962 509.7 842.657 505.101C830.349 500.502 815.747 486.587 815.402 485.782C815.057 484.977 814.825 483.711 817.701 483.136C819.885 481.297 814.94 475.317 812.755 473.134C810.571 470.948 795.966 446.111 795.621 445.537C795.277 444.962 795.161 444.385 794.127 443.695C790.906 442.659 776.76 445.19 776.76 445.19C776.76 445.19 755.004 434.505 747.506 411.467C747.615 415.502 743.776 419.911 747.506 429.181C736.163 424.383 726.42 416.198 718.736 395.974C714.162 407.477 718.736 414.791 718.736 414.791C718.736 414.791 692.028 407.326 687.755 382.693C683.064 393.751 687.755 400.402 687.755 400.402C687.755 400.402 644.207 377.681 571.853 377.351C523.412 372.907 513.327 287.691 517.816 273.346C517.816 273.346 447.945 236.521 310.405 220.253C258.828 214.152 210.726 212.285 170.749 212.331L170.748 212.342ZM331.922 285.881C310.961 286.039 288.461 286.821 264.821 288.501C138.753 297.462 11.4688 341.589 11.4688 341.589C11.4688 341.589 271.922 276.057 490.338 314.519H490.342L484.662 296.19C484.662 296.19 422.762 285.196 331.931 285.88L331.922 285.881ZM486.351 324.917C464.304 324.824 395.855 327.596 292.868 359.822C163.695 400.24 90.4345 457.531 90.4345 457.531C90.4345 457.531 282.961 350.033 500.267 343.925L494.05 325.117C494.05 325.117 491.435 324.941 486.348 324.919L486.351 324.917ZM627.814 324.602C687.466 348.85 739.385 380.978 779.692 425.26L779.697 425.265L789.374 424.632C789.374 424.632 733.933 357.368 627.814 324.602ZM792.236 453.908L804.106 462.653C805.594 460.073 811.591 476.368 815.238 480.894C815.393 481.798 809.175 489.063 807.061 488.628C806.883 487.699 797.225 484.908 797.225 484.908C797.225 484.908 786.251 478.278 784.686 476.124C783.12 473.969 791.472 455.337 792.236 453.908Z" fill="white" stroke="white" stroke-width="6.75306" stroke-linejoin="round"/>
<path d="M170.748 212.342C104.122 212.418 60.0612 217.816 60.0612 217.816C60.0612 217.816 303.668 206.123 498.815 285.131C505.449 314.804 525.406 364.221 536.156 387.976C505.398 409.241 470.715 429.242 465.315 500.162C459.915 571.08 520.888 633.457 596.498 635.382C668.295 639.206 717.901 639.751 778.026 670.924C835.417 702.659 882.478 799.351 887.134 886.315C892.164 821.792 867.948 683.038 754.956 640.899C912.852 668.53 926.772 785.559 926.776 785.607C926.776 785.607 938.548 650.487 726.254 619.333C699.347 615.386 665.319 612.346 630.901 612.26C460.749 614.509 454.546 416.013 582.763 405.991C635.9 401.607 699.345 430.273 761.371 459.158C761.141 466.862 761.463 473.707 766.524 480.033C771.584 486.357 791.018 493.255 797.23 496.819C803.44 500.383 823.336 513.035 835.529 528.904C838.173 523.958 860.251 509.585 860.251 509.585C860.251 509.585 854.962 509.7 842.657 505.101C830.349 500.502 815.747 486.587 815.402 485.782C815.057 484.977 814.825 483.711 817.701 483.136C819.885 481.297 814.94 475.317 812.755 473.134C810.571 470.948 795.966 446.111 795.621 445.537C795.277 444.962 795.161 444.385 794.127 443.695C790.906 442.659 776.76 445.19 776.76 445.19C776.76 445.19 755.004 434.505 747.506 411.467C747.615 415.502 743.776 419.911 747.506 429.181C736.163 424.383 726.42 416.198 718.736 395.974C714.162 407.477 718.736 414.791 718.736 414.791C718.736 414.791 692.028 407.326 687.755 382.693C683.064 393.751 687.755 400.402 687.755 400.402C687.755 400.402 644.207 377.681 571.853 377.351C523.412 372.907 513.327 287.691 517.816 273.346C517.816 273.346 447.945 236.521 310.405 220.253C258.828 214.152 210.726 212.285 170.749 212.331L170.748 212.342ZM331.922 285.881C310.961 286.039 288.461 286.821 264.821 288.501C138.753 297.462 11.4688 341.589 11.4688 341.589C11.4688 341.589 271.922 276.057 490.338 314.519H490.342L484.662 296.19C484.662 296.19 422.764 285.88 331.931 285.88L331.922 285.881ZM486.351 324.917C464.304 324.824 395.855 327.596 292.868 359.822C163.695 400.24 90.4345 457.531 90.4345 457.531C90.4345 457.531 282.961 350.033 500.267 343.925L494.05 325.117C494.05 325.117 491.435 324.941 486.348 324.919L486.351 324.917ZM627.814 324.602C687.466 348.85 739.385 380.978 779.692 425.26L779.697 425.265L789.374 424.632C789.374 424.632 733.931 357.368 627.814 324.602ZM796.645 464.192C798.585 464.583 802.248 471.783 805.61 476.925C805.905 477.343 806.206 477.787 806.489 478.138C806.493 478.169 806.496 478.191 806.502 478.222C806.882 478.764 807.264 479.327 807.628 479.778C807.812 480.854 808.117 481.509 805.601 480.992C805.389 479.886 805.025 479.567 805.025 479.567C805.025 479.567 798.951 475.953 797.089 473.39C795.226 470.827 794.897 466.345 795.806 464.645C796.027 464.262 796.311 464.125 796.645 464.192Z" fill="white"/>
<defs>
<linearGradient id="paint0_linear_546_544" x1="415.216" y1="724.843" x2="683.575" y2="456.483" gradientUnits="userSpaceOnUse">
<stop stop-color="#249EFF"/>
<stop offset="1" stop-color="#2777FF"/>
</linearGradient>
</defs>
</svg>
