<svg width="1008" height="1008" viewBox="0 0 1008 1008" fill="none" xmlns="http://www.w3.org/2000/svg">
<path d="M330.081 202.276C329.138 202.644 302.635 217.744 271.195 235.815C233.1 257.715 213.535 269.25 212.488 270.334C211.592 271.395 210.884 272.607 210.422 273.918C209.635 276.578 209.578 665.259 210.375 668.055C210.663 669.14 211.601 670.734 212.45 671.611C214.506 673.78 441.939 804.549 444.703 805.181C445.986 805.488 447.424 805.436 448.853 805.04C451.956 804.262 678.795 673.78 680.813 671.649C681.639 670.729 682.582 669.14 682.888 668.06C683.285 666.773 683.431 646.462 683.431 603.666V541.134L738.728 509.373C790.866 479.395 794.059 477.518 795.398 475.462L796.765 473.246V405.89C796.765 332.569 796.907 336.695 794.007 334.045C793.229 333.356 766.665 317.855 734.918 299.572L677.253 266.411H670.844L614.429 298.808C583.371 316.672 556.972 331.946 555.684 332.776C554.402 333.625 552.869 335.191 552.242 336.327L551.101 338.294L550.846 401.745L550.62 465.219L504.032 492.052C478.407 506.784 457.077 518.979 456.624 519.093C455.799 519.324 455.743 513.283 455.743 396.642V273.876L454.516 271.768C452.979 269.198 459.874 273.296 390.646 233.504C332.59 200.116 333.985 200.814 330.081 202.276ZM383.449 250.882C407.736 264.817 427.608 276.347 427.608 276.488C427.608 276.635 406.312 288.943 380.285 303.901L332.934 331.088L285.667 303.906C259.697 288.943 238.415 276.635 238.415 276.488C238.415 276.347 259.66 264.039 285.634 249.113L332.788 221.988L336.042 223.761C351.872 232.754 367.675 241.794 383.449 250.882ZM721.421 313.418C746.99 328.141 768.145 340.307 768.343 340.505C768.881 340.991 675.093 394.902 673.811 394.846C672.528 394.808 579.895 341.392 579.933 340.741C579.98 340.001 673.179 286.382 674.122 286.528C674.551 286.632 695.847 298.742 721.421 313.418ZM278.344 321.199L323.417 347.15L323.677 475.641L323.912 604.156L325.011 605.892C325.587 606.806 326.671 608.056 327.463 608.631C328.209 609.174 353.292 623.467 383.195 640.341L437.521 671.022V725.38C437.521 755.213 437.318 779.688 437.063 779.688C436.87 779.688 389.905 752.812 332.731 719.91L228.795 660.137L228.653 476.382L228.564 292.683L230.875 293.961C232.209 294.668 253.543 306.92 278.339 321.194L278.344 321.199ZM437.521 411.648V530.057L435.696 531.25C433.22 532.816 342.95 584.704 342.644 584.704C342.502 584.704 342.389 531.245 342.389 465.898L342.446 347.145L389.604 320.02C415.536 305.095 436.922 292.984 437.176 293.074C437.36 293.187 437.521 346.551 437.521 411.648ZM617.428 384.414L664.695 411.591V465.465C664.695 516.574 664.643 519.319 663.865 519.022C663.36 518.829 641.974 506.572 616.316 491.793L569.582 464.96V411.106C569.582 381.457 569.733 357.232 569.874 357.232C570.077 357.232 591.459 369.456 617.428 384.414ZM778.539 410.761C778.539 440.254 778.341 464.578 778.143 464.814C777.803 465.356 684.317 519.225 683.723 519.225C683.577 519.225 683.431 495.009 683.431 465.356V411.502L730.589 384.358C756.559 369.456 777.945 357.232 778.143 357.232C778.393 357.232 778.539 381.307 778.539 410.761ZM654.16 536.263L446.721 654.662L352.646 601.152C352.646 601.152 559.877 481.296 560.707 481.607L654.16 536.263ZM664.605 606.184L664.445 660.142L560.565 719.92C503.41 752.817 456.431 779.692 456.195 779.692C455.945 779.692 455.747 757.726 455.747 725.385V671.026L559.872 611.645C617.084 578.997 664.096 552.273 664.346 552.216C664.549 552.216 664.638 576.493 664.601 606.179L664.605 606.184Z" fill="#F0513F"/>
</svg>
