<svg width="1006" height="1006" viewBox="0 0 1006 1006" fill="none" xmlns="http://www.w3.org/2000/svg">
<path d="M893.765 503.027C893.765 293.985 724.324 124.527 515.302 124.527C306.281 124.527 136.834 293.985 136.834 503.027C136.834 712.07 306.281 881.527 515.302 881.527C724.324 881.527 893.765 712.07 893.765 503.027Z" fill="url(#paint0_linear_560_290)"/>
<path d="M893.765 503.027C893.765 293.985 724.324 124.527 515.302 124.527C306.281 124.527 136.834 293.985 136.834 503.027C136.834 712.07 306.281 881.527 515.302 881.527C724.324 881.527 893.765 712.07 893.765 503.027Z" fill="url(#paint1_radial_560_290)"/>
<path d="M893.765 503.027C893.765 293.985 724.324 124.527 515.302 124.527C306.281 124.527 136.834 293.985 136.834 503.027C136.834 712.07 306.281 881.527 515.302 881.527C724.324 881.527 893.765 712.07 893.765 503.027Z" fill="url(#paint2_radial_560_290)"/>
<path d="M515.356 124.527C724.372 124.533 893.813 293.99 893.813 503.027C893.813 572.566 875.025 637.7 842.306 693.697L848.457 680.076C885.912 596.911 825.032 502.801 733.818 502.87L583.186 502.985C545.741 503.017 515.356 472.658 515.356 435.213V284.307C515.35 193.057 421.135 132.245 337.992 169.826L325.885 175.309C381.608 143.021 446.321 124.527 515.356 124.527Z" fill="url(#paint3_linear_560_290)"/>
<path d="M515.356 124.527C724.372 124.533 893.813 293.99 893.813 503.027C893.813 572.566 875.025 637.7 842.306 693.697L848.457 680.076C885.912 596.911 825.032 502.801 733.818 502.87L583.186 502.985C545.741 503.017 515.356 472.658 515.356 435.213V284.307C515.35 193.057 421.135 132.245 337.992 169.826L325.885 175.309C381.608 143.021 446.321 124.527 515.356 124.527Z" fill="url(#paint4_radial_560_290)"/>
<path d="M515.356 124.527C724.372 124.533 893.813 293.99 893.813 503.027C893.813 572.566 875.025 637.7 842.306 693.697L848.457 680.076C885.912 596.911 825.032 502.801 733.818 502.87L583.186 502.985C545.741 503.017 515.356 472.658 515.356 435.213V284.307C515.35 193.057 421.135 132.245 337.992 169.826L325.885 175.309C381.608 143.021 446.321 124.527 515.356 124.527Z" fill="url(#paint5_radial_560_290)"/>
<path d="M515.356 124.527C724.372 124.533 893.813 293.99 893.813 503.027C893.813 572.566 875.025 637.7 842.306 693.697L848.457 680.076C885.912 596.911 825.032 502.801 733.818 502.87L583.186 502.985C545.741 503.017 515.356 472.658 515.356 435.213V284.307C515.35 193.057 421.135 132.245 337.992 169.826L325.885 175.309C381.608 143.021 446.321 124.527 515.356 124.527Z" fill="url(#paint6_radial_560_290)"/>
<path d="M515.356 124.527C724.372 124.533 893.813 293.99 893.813 503.027C893.813 572.566 875.025 637.7 842.306 693.697L848.457 680.076C885.912 596.911 825.032 502.801 733.818 502.87L583.186 502.985C545.741 503.017 515.356 472.658 515.356 435.213V284.307C515.35 193.057 421.135 132.245 337.992 169.826L325.885 175.309C381.608 143.021 446.321 124.527 515.356 124.527Z" fill="url(#paint7_radial_560_290)"/>
<path d="M177.206 482.84H368.98C405.216 482.84 434.586 512.21 434.586 548.446V740.22C434.586 776.456 405.216 805.826 368.98 805.826H177.206C140.97 805.826 111.6 776.456 111.6 740.22V548.446C111.6 512.21 140.97 482.84 177.206 482.84Z" fill="url(#paint8_radial_560_290)"/>
<path d="M177.206 482.84H368.98C405.216 482.84 434.586 512.21 434.586 548.446V740.22C434.586 776.456 405.216 805.826 368.98 805.826H177.206C140.97 805.826 111.6 776.456 111.6 740.22V548.446C111.6 512.21 140.97 482.84 177.206 482.84Z" fill="url(#paint9_radial_560_290)"/>
<path d="M257.34 676.507V736.615H215.789V552.049H279.982C302.965 552.049 320.46 557.069 332.467 567.11C344.563 577.145 350.609 592.033 350.609 611.768C350.609 632.107 343.832 647.978 330.28 659.39C316.817 670.803 298.717 676.507 275.992 676.507H257.34ZM257.34 583.969V644.587H274.709C284.997 644.587 292.935 641.89 298.507 636.481C304.079 631.076 306.871 623.312 306.871 613.187C306.871 603.835 304.121 596.628 298.633 591.56C293.229 586.498 285.47 583.969 275.35 583.969H257.34Z" fill="white"/>
<defs>
<linearGradient id="paint0_linear_560_290" x1="476.898" y1="100.43" x2="13.1625" y2="544.065" gradientUnits="userSpaceOnUse">
<stop offset="0.0582736" stop-color="#FF7F48"/>
<stop offset="1" stop-color="#E5495B"/>
</linearGradient>
<radialGradient id="paint1_radial_560_290" cx="0" cy="0" r="1" gradientUnits="userSpaceOnUse" gradientTransform="translate(664.905 344.172) rotate(135) scale(759.933 1279.07)">
<stop offset="0.151523" stop-color="#AA1D2D"/>
<stop offset="0.380855" stop-color="#D12B18" stop-opacity="0.439216"/>
<stop offset="0.601996" stop-color="#FF3C00" stop-opacity="0"/>
</radialGradient>
<radialGradient id="paint2_radial_560_290" cx="0" cy="0" r="1" gradientUnits="userSpaceOnUse" gradientTransform="translate(4.73145 810.696) rotate(-25.2832) scale(720.379 1305.07)">
<stop offset="0.4067" stop-color="#FF66FB" stop-opacity="0.501961"/>
<stop offset="1" stop-color="#EA3D01" stop-opacity="0"/>
</radialGradient>
<linearGradient id="paint3_linear_560_290" x1="586.983" y1="587.252" x2="994.344" y2="285.328" gradientUnits="userSpaceOnUse">
<stop offset="0.310768" stop-color="#FF6E30"/>
<stop offset="0.634576" stop-color="#FFA05C"/>
</linearGradient>
<radialGradient id="paint4_radial_560_290" cx="0" cy="0" r="1" gradientUnits="userSpaceOnUse" gradientTransform="translate(451.755 548.288) rotate(11.8349) scale(489.307 466.477)">
<stop offset="0.78593" stop-color="#FFA05C" stop-opacity="0"/>
<stop offset="0.904889" stop-color="#FFCE84"/>
</radialGradient>
<radialGradient id="paint5_radial_560_290" cx="0" cy="0" r="1" gradientUnits="userSpaceOnUse" gradientTransform="translate(528.516 497.349) rotate(-33.1977) scale(494.079 472.493)">
<stop offset="0.295239" stop-color="#FF99E9" stop-opacity="0.8"/>
<stop offset="0.727968" stop-color="#FF99E9" stop-opacity="0"/>
</radialGradient>
<radialGradient id="paint6_radial_560_290" cx="0" cy="0" r="1" gradientUnits="userSpaceOnUse" gradientTransform="translate(473.033 555.133) rotate(-48.864) scale(526.044 480.424)">
<stop stop-color="#FD6EF9"/>
<stop offset="0.637205" stop-color="#FF9944"/>
<stop offset="0.85186" stop-color="#FCC479"/>
</radialGradient>
<radialGradient id="paint7_radial_560_290" cx="0" cy="0" r="1" gradientUnits="userSpaceOnUse" gradientTransform="translate(438.605 174.55) rotate(98.3949) scale(267.744 605.105)">
<stop offset="0.144283" stop-color="#FF8D13"/>
<stop offset="0.537266" stop-color="#FF7F29" stop-opacity="0"/>
</radialGradient>
<radialGradient id="paint8_radial_560_290" cx="0" cy="0" r="1" gradientUnits="userSpaceOnUse" gradientTransform="translate(111.56 482.84) rotate(45) scale(456.772)">
<stop stop-color="#F8193E"/>
<stop offset="0.939062" stop-color="#920616"/>
</radialGradient>
<radialGradient id="paint9_radial_560_290" cx="0" cy="0" r="1" gradientUnits="userSpaceOnUse" gradientTransform="translate(273.053 676.632) rotate(90) scale(226.091 257.38)">
<stop offset="0.575893" stop-color="#FFB055" stop-opacity="0"/>
<stop offset="0.973806" stop-color="#FFF2BE" stop-opacity="0.301961"/>
</radialGradient>
</defs>
</svg>
