<svg width="1006" height="1006" viewBox="0 0 1006 1006" fill="none" xmlns="http://www.w3.org/2000/svg">
<path d="M502.967 405.861H737.967C802.86 405.861 855.467 458.468 855.467 523.361V719.195C855.467 784.088 802.86 836.695 737.967 836.695C673.074 836.695 620.467 784.088 620.467 719.195V523.361C620.467 458.468 567.86 405.861 502.967 405.861Z" fill="url(#paint0_radial_541_392)"/>
<path d="M228.799 484.195C228.799 419.302 281.406 366.695 346.299 366.695H502.966C567.859 366.695 620.466 419.302 620.466 484.195V719.195C620.466 784.089 673.073 836.695 737.966 836.695L424.631 836.693C316.476 836.693 228.799 749.017 228.799 640.86V484.195Z" fill="url(#paint1_radial_541_392)"/>
<path d="M228.799 484.195C228.799 419.302 281.406 366.695 346.299 366.695H502.966C567.859 366.695 620.466 419.302 620.466 484.195V719.195C620.466 784.089 673.073 836.695 737.966 836.695L424.631 836.693C316.476 836.693 228.799 749.017 228.799 640.86V484.195Z" fill="url(#paint2_linear_541_392)" fill-opacity="0.7"/>
<path d="M228.799 484.195C228.799 419.302 281.406 366.695 346.299 366.695H502.966C567.859 366.695 620.466 419.302 620.466 484.195V719.195C620.466 784.089 673.073 836.695 737.966 836.695L424.631 836.693C316.476 836.693 228.799 749.017 228.799 640.86V484.195Z" fill="url(#paint3_radial_541_392)" fill-opacity="0.7"/>
<path d="M718.383 366.693C772.461 366.693 816.3 322.853 816.3 268.776C816.3 214.699 772.461 170.859 718.383 170.859C664.306 170.859 620.467 214.699 620.467 268.776C620.467 322.853 664.306 366.693 718.383 366.693Z" fill="url(#paint4_radial_541_392)"/>
<path d="M718.383 366.693C772.461 366.693 816.3 322.853 816.3 268.776C816.3 214.699 772.461 170.859 718.383 170.859C664.306 170.859 620.467 214.699 620.467 268.776C620.467 322.853 664.306 366.693 718.383 366.693Z" fill="url(#paint5_radial_541_392)" fill-opacity="0.46"/>
<path d="M718.383 366.693C772.461 366.693 816.3 322.853 816.3 268.776C816.3 214.699 772.461 170.859 718.383 170.859C664.306 170.859 620.467 214.699 620.467 268.776C620.467 322.853 664.306 366.693 718.383 366.693Z" fill="url(#paint6_radial_541_392)" fill-opacity="0.4"/>
<path d="M424.633 327.527C489.526 327.527 542.133 274.921 542.133 210.027C542.133 145.134 489.526 92.5273 424.633 92.5273C359.74 92.5273 307.133 145.134 307.133 210.027C307.133 274.921 359.74 327.527 424.633 327.527Z" fill="url(#paint7_radial_541_392)"/>
<path d="M424.633 327.527C489.526 327.527 542.133 274.921 542.133 210.027C542.133 145.134 489.526 92.5273 424.633 92.5273C359.74 92.5273 307.133 145.134 307.133 210.027C307.133 274.921 359.74 327.527 424.633 327.527Z" fill="url(#paint8_radial_541_392)" fill-opacity="0.6"/>
<path d="M424.633 327.527C489.526 327.527 542.133 274.921 542.133 210.027C542.133 145.134 489.526 92.5273 424.633 92.5273C359.74 92.5273 307.133 145.134 307.133 210.027C307.133 274.921 359.74 327.527 424.633 327.527Z" fill="url(#paint9_radial_541_392)" fill-opacity="0.5"/>
<path d="M400.154 464.611H214.113C178.962 464.611 150.467 493.107 150.467 528.257V714.299C150.467 749.449 178.962 777.945 214.113 777.945H400.154C435.305 777.945 463.8 749.449 463.8 714.299V528.257C463.8 493.107 435.305 464.611 400.154 464.611Z" fill="url(#paint10_radial_541_392)"/>
<path d="M400.154 464.611H214.113C178.962 464.611 150.467 493.107 150.467 528.257V714.299C150.467 749.449 178.962 777.945 214.113 777.945H400.154C435.305 777.945 463.8 749.449 463.8 714.299V528.257C463.8 493.107 435.305 464.611 400.154 464.611Z" fill="url(#paint11_radial_541_392)" fill-opacity="0.7"/>
<path d="M375.276 564.576H327.353V710.785H286.918V564.576H238.994V531.738H375.276V564.576Z" fill="white"/>
<defs>
<radialGradient id="paint0_radial_541_392" cx="0" cy="0" r="1" gradientUnits="userSpaceOnUse" gradientTransform="translate(851.487 448.434) scale(263.952 651.526)">
<stop stop-color="#A98AFF"/>
<stop offset="0.14" stop-color="#8C75FF"/>
<stop offset="0.565" stop-color="#5F50E2"/>
<stop offset="0.9" stop-color="#3C2CB8"/>
</radialGradient>
<radialGradient id="paint1_radial_541_392" cx="0" cy="0" r="1" gradientUnits="userSpaceOnUse" gradientTransform="translate(244.71 335.362) rotate(68.1539) scale(641.393 648.661)">
<stop stop-color="#85C2FF"/>
<stop offset="0.69" stop-color="#7588FF"/>
<stop offset="1" stop-color="#6459FE"/>
</radialGradient>
<linearGradient id="paint2_linear_541_392" x1="475.426" y1="366.695" x2="475.426" y2="836.695" gradientUnits="userSpaceOnUse">
<stop offset="0.801159" stop-color="#6864F6" stop-opacity="0"/>
<stop offset="1" stop-color="#5149DE"/>
</linearGradient>
<radialGradient id="paint3_radial_541_392" cx="0" cy="0" r="1" gradientUnits="userSpaceOnUse" gradientTransform="translate(610.674 351.029) rotate(113.326) scale(376.364 302.118)">
<stop stop-color="#BD96FF"/>
<stop offset="0.686685" stop-color="#BD96FF" stop-opacity="0"/>
</radialGradient>
<radialGradient id="paint4_radial_541_392" cx="0" cy="0" r="1" gradientUnits="userSpaceOnUse" gradientTransform="translate(718.383 240.799) rotate(-90) scale(195.833 247.173)">
<stop offset="0.268201" stop-color="#6868F7"/>
<stop offset="1" stop-color="#3923B1"/>
</radialGradient>
<radialGradient id="paint5_radial_541_392" cx="0" cy="0" r="1" gradientUnits="userSpaceOnUse" gradientTransform="translate(637.457 220.679) rotate(40.0516) scale(139.948 202.419)">
<stop offset="0.270711" stop-color="#A1D3FF"/>
<stop offset="0.813393" stop-color="#A1D3FF" stop-opacity="0"/>
</radialGradient>
<radialGradient id="paint6_radial_541_392" cx="0" cy="0" r="1" gradientUnits="userSpaceOnUse" gradientTransform="translate(796.368 217.244) rotate(-41.6581) scale(166.708 408.947)">
<stop stop-color="#E3ACFD"/>
<stop offset="0.816041" stop-color="#9FA2FF" stop-opacity="0"/>
</radialGradient>
<radialGradient id="paint7_radial_541_392" cx="0" cy="0" r="1" gradientUnits="userSpaceOnUse" gradientTransform="translate(424.633 176.456) rotate(-90) scale(235 296.609)">
<stop offset="0.268201" stop-color="#8282FF"/>
<stop offset="1" stop-color="#3923B1"/>
</radialGradient>
<radialGradient id="paint8_radial_541_392" cx="0" cy="0" r="1" gradientUnits="userSpaceOnUse" gradientTransform="translate(327.523 152.312) rotate(40.0516) scale(167.938 242.902)">
<stop offset="0.270711" stop-color="#A1D3FF"/>
<stop offset="0.813393" stop-color="#A1D3FF" stop-opacity="0"/>
</radialGradient>
<radialGradient id="paint9_radial_541_392" cx="0" cy="0" r="1" gradientUnits="userSpaceOnUse" gradientTransform="translate(518.216 148.189) rotate(-41.6581) scale(200.05 490.737)">
<stop stop-color="#E3ACFD"/>
<stop offset="0.816041" stop-color="#9FA2FF" stop-opacity="0"/>
</radialGradient>
<radialGradient id="paint10_radial_541_392" cx="0" cy="0" r="1" gradientUnits="userSpaceOnUse" gradientTransform="translate(150.467 464.611) rotate(45) scale(443.12)">
<stop offset="0.046875" stop-color="#688EFF"/>
<stop offset="0.946875" stop-color="#230F94"/>
</radialGradient>
<radialGradient id="paint11_radial_541_392" cx="0" cy="0" r="1" gradientUnits="userSpaceOnUse" gradientTransform="translate(307.133 652.611) rotate(90) scale(219.333 255.958)">
<stop offset="0.570647" stop-color="#6965F6" stop-opacity="0"/>
<stop offset="1" stop-color="#8F8FFF"/>
</radialGradient>
</defs>
</svg>
