<svg width="1006" height="1006" viewBox="0 0 1006 1006" fill="none" xmlns="http://www.w3.org/2000/svg">
<path fill-rule="evenodd" clip-rule="evenodd" d="M841.607 457.234C799.5 457.234 764.103 428.379 754.037 389.46H650.363C628.219 389.46 609.43 405.397 605.739 427.205L602.048 449.517C598.693 469.983 588.292 488.772 572.691 502.528C588.292 516.285 598.693 534.906 602.048 555.54L605.739 577.852C609.43 599.66 628.219 615.597 650.363 615.597H663.616C673.681 576.677 709.078 547.823 751.185 547.823C801.177 547.823 841.607 588.253 841.607 638.245C841.607 688.237 801.177 728.666 751.185 728.666C709.078 728.666 673.681 699.812 663.616 660.892H650.363C606.242 660.892 568.497 629.018 561.116 585.401L557.425 563.089C553.734 541.281 534.945 525.344 512.801 525.344H476.901C466.836 564.263 431.439 593.118 389.331 593.118C347.224 593.118 311.827 564.263 301.762 525.344H250.931C240.865 564.263 205.469 593.118 163.361 593.118C113.537 592.782 73.1074 552.353 73.1074 502.361C73.1074 452.369 113.537 411.939 163.529 411.939C205.636 411.939 241.033 440.793 251.099 479.713H301.929C311.995 440.793 347.392 411.939 389.499 411.939C431.606 411.939 467.003 440.793 477.069 479.713H512.969C535.113 479.713 553.902 463.776 557.593 441.968L561.283 419.656C568.497 376.039 606.242 344.165 650.531 344.165H754.205C764.271 305.245 799.667 276.391 841.775 276.391C891.767 276.391 932.196 316.82 932.196 366.812C932.196 416.804 891.599 457.234 841.607 457.234ZM841.607 411.939C866.603 411.939 886.734 391.64 886.734 366.812C886.734 341.984 866.435 321.685 841.607 321.685C816.779 321.685 796.48 341.984 796.48 366.812C796.48 391.64 816.611 411.939 841.607 411.939ZM163.529 547.488C188.525 547.488 208.656 527.189 208.656 502.361C208.656 477.532 188.357 457.234 163.529 457.234C138.701 457.234 118.234 477.365 118.234 502.361C118.234 527.357 138.533 547.488 163.529 547.488ZM434.794 502.361C434.794 527.357 414.495 547.488 389.667 547.488C364.839 547.488 344.54 527.189 344.54 502.361C344.54 477.532 364.839 457.234 389.667 457.234C414.495 457.234 434.794 477.365 434.794 502.361ZM796.48 637.909C796.48 662.905 776.181 683.036 751.353 683.036C726.357 683.036 706.226 662.737 706.226 637.909C706.226 613.081 726.525 592.782 751.353 592.782C776.181 592.782 796.48 613.081 796.48 637.909Z" fill="url(#paint0_linear_530_424)"/>
<defs>
<linearGradient id="paint0_linear_530_424" x1="405.496" y1="276.391" x2="329.927" y2="728.666" gradientUnits="userSpaceOnUse">
<stop offset="0.156245" stop-color="#EA4B71"/>
<stop offset="1" stop-color="#4E1724"/>
</linearGradient>
</defs>
</svg>
