<svg width="1006" height="1006" viewBox="0 0 1006 1006" fill="none" xmlns="http://www.w3.org/2000/svg">
<path d="M827.588 445.922C827.255 445.922 826.929 446.02 826.652 446.206L811.509 455.049C811.224 455.225 810.99 455.473 810.829 455.767C810.669 456.061 810.587 456.392 810.593 456.727V474.413C810.593 475.162 810.948 475.73 811.509 476.104L826.652 484.934C826.929 485.118 827.255 485.216 827.588 485.216C827.921 485.216 828.246 485.118 828.524 484.934L843.641 476.104C843.928 475.924 844.166 475.674 844.329 475.377C844.493 475.08 844.578 474.746 844.576 474.406V456.74C844.578 456.403 844.493 456.072 844.329 455.778C844.165 455.484 843.928 455.237 843.641 455.062L828.517 446.212C828.242 446.028 827.919 445.923 827.588 445.922ZM497.799 551.675C495.043 551.675 492.3 552.346 489.963 553.663L415.419 597.084C413.029 598.485 411.048 600.489 409.673 602.894C408.298 605.299 407.577 608.023 407.583 610.793V697.434C407.583 703.076 410.565 708.343 415.419 711.17L435.041 722.44C444.568 727.139 447.931 727.126 452.223 727.126C466.23 727.126 474.266 718.483 474.266 703.631V618.139C474.258 617.544 474.019 616.975 473.6 616.553C473.181 616.13 472.614 615.887 472.02 615.873H462.505C461.908 615.883 461.338 616.125 460.917 616.548C460.495 616.971 460.254 617.542 460.246 618.139V703.65C460.246 710.228 453.346 716.818 442.328 711.183L421.964 699.339C421.215 698.964 420.834 698.009 420.834 697.26V610.6C420.834 609.851 421.215 608.922 421.964 608.541L496.483 565.314C497.044 564.939 497.987 564.939 498.735 565.314L573.274 608.541C574.016 608.922 574.384 609.664 574.384 610.606V697.254C574.384 698.19 574.016 698.958 573.274 699.332L498.735 742.753C498.174 743.127 497.231 743.127 496.483 742.753L477.435 731.27C476.873 730.895 476.125 730.708 475.563 731.083C470.335 734.09 469.418 734.484 464.371 736.175C463.248 736.55 461.382 737.292 465.113 739.357L489.963 754.216C492.39 755.526 494.998 756.275 497.799 756.275C500.601 756.275 503.396 755.533 505.635 754.597L580.18 711.176C582.571 709.77 584.553 707.762 585.927 705.352C587.302 702.942 588.022 700.215 588.016 697.441V610.793C588.016 605.152 585.034 599.904 580.18 597.084L505.635 553.663C503.236 552.343 500.538 551.659 497.799 551.675ZM614.177 591.242C610.352 591.258 606.689 592.791 603.993 595.506C601.298 598.221 599.791 601.895 599.803 605.72C599.792 609.545 601.3 613.217 603.995 615.93C606.691 618.643 610.353 620.176 614.177 620.191C622.032 620.191 628.558 613.614 628.558 605.72C628.538 601.904 627.019 598.248 624.329 595.541C621.639 592.834 617.993 591.286 614.177 591.242ZM613.983 593.689C615.575 593.669 617.154 593.966 618.629 594.562C620.105 595.158 621.447 596.042 622.578 597.161C623.709 598.281 624.606 599.614 625.217 601.083C625.828 602.553 626.141 604.129 626.138 605.72C626.138 612.304 620.716 617.945 613.99 617.945C607.458 617.945 602.036 612.485 602.036 605.72C602.036 598.956 607.639 593.689 613.983 593.689ZM608.762 597.632V614.169H611.95V607.611H614.752C615.875 607.611 616.243 607.986 616.43 608.922C616.43 609.115 616.985 613.246 616.985 613.995H620.341C619.967 613.246 619.78 610.987 619.593 609.67C619.412 607.605 619.231 606.101 616.985 605.914C618.108 605.533 619.973 604.971 619.973 601.963C619.973 597.639 616.23 597.639 614.371 597.639L608.762 597.632ZM611.569 600.266H614.177C615.119 600.266 616.604 600.266 616.604 602.519C616.604 603.267 616.243 604.784 614.177 604.784H611.563L611.569 600.266ZM518.17 613.24C496.87 613.24 484.167 622.263 484.167 637.49C484.167 653.846 496.87 658.339 517.234 660.41C541.698 662.857 543.569 666.433 543.569 671.319C543.569 679.774 536.831 683.35 521.14 683.35C501.337 683.35 497.044 678.458 495.547 668.498C495.547 667.369 494.63 666.626 493.507 666.626H483.793C483.199 666.633 482.632 666.873 482.214 667.295C481.796 667.716 481.561 668.285 481.559 668.879C481.559 681.659 488.279 696.699 520.978 696.699C544.505 696.699 558.144 687.288 558.144 670.751C558.144 654.582 547.3 650.264 524.335 647.256C501.162 644.248 498.742 642.557 498.742 637.109C498.742 632.597 500.794 626.588 517.977 626.588C533.294 626.588 539.077 629.977 541.323 640.311C541.436 640.777 541.698 641.194 542.07 641.497C542.442 641.8 542.903 641.973 543.382 641.989H553.277C553.845 641.989 554.407 641.621 554.788 641.247C555.134 640.747 555.325 640.157 555.336 639.549C553.845 621.508 542.085 613.24 518.17 613.24Z" fill="url(#paint0_linear_390_293)"/>
<path d="M645.301 248.475C644.506 248.466 643.724 248.664 643.029 249.049C642.306 249.47 641.703 250.07 641.279 250.791C640.855 251.513 640.624 252.331 640.608 253.167V375.348C640.608 376.471 640.027 377.607 638.911 378.356C638.395 378.633 637.818 378.778 637.232 378.778C636.647 378.778 636.07 378.633 635.554 378.356L615.764 366.899C614.312 366.066 612.668 365.628 610.994 365.628C609.321 365.628 607.676 366.066 606.224 366.899L527.038 412.953C525.573 413.779 524.352 414.978 523.499 416.427C522.645 417.877 522.19 419.526 522.178 421.208V513.123C522.178 516.505 524.05 519.706 527.038 521.398L606.237 567.452C607.688 568.283 609.332 568.72 611.004 568.72C612.676 568.72 614.32 568.283 615.771 567.452L694.963 521.398C697.951 519.706 699.823 516.505 699.823 513.123V284.001C699.823 280.432 697.951 277.224 694.963 275.539L647.715 249.049C646.968 248.674 646.137 248.477 645.301 248.475ZM178.08 363.148C176.589 363.148 175.098 363.691 173.794 364.439L94.595 410.326C93.1079 411.174 91.8737 412.404 91.0195 413.888C90.1652 415.371 89.7217 417.056 89.7346 418.768L89.9283 542.065C89.9283 543.763 90.8513 545.454 92.3488 546.209C93.0418 546.668 93.8544 546.912 94.6854 546.912C95.5164 546.912 96.329 546.668 97.022 546.209L144.102 519.145C147.091 517.454 148.943 514.252 148.943 510.87V453.165C148.943 449.783 150.815 446.582 153.81 444.89L173.794 433.24C175.285 432.297 176.976 431.923 178.654 431.923C180.332 431.923 182.017 432.297 183.327 433.24L203.311 444.89C206.299 446.582 208.171 449.783 208.171 453.165V510.87C208.171 514.252 210.03 517.454 213.012 519.145L259.718 546.209C260.445 546.669 261.288 546.914 262.148 546.914C263.009 546.914 263.852 546.669 264.579 546.209C265.32 545.803 265.938 545.203 266.365 544.473C266.793 543.743 267.014 542.911 267.006 542.065V418.768C267.006 415.386 265.134 412.185 262.139 410.487L183.134 364.439C181.805 363.727 180.348 363.286 178.848 363.142L178.08 363.148ZM827.852 364.504C826.219 364.504 824.599 364.93 823.101 365.782L743.889 411.81C740.901 413.501 739.048 416.703 739.048 420.092V512.006C739.048 515.388 740.901 518.59 743.889 520.281L822.533 565.38C823.949 566.21 825.561 566.648 827.203 566.648C828.845 566.648 830.457 566.21 831.873 565.38L879.508 538.702C880.249 538.295 880.865 537.695 881.291 536.965C881.717 536.235 881.938 535.404 881.929 534.559C881.935 533.716 881.714 532.887 881.288 532.16C880.862 531.432 880.247 530.834 879.508 530.428L799.942 484.367C799.218 483.942 798.615 483.339 798.192 482.614C797.768 481.89 797.537 481.069 797.521 480.23V451.468C797.512 450.624 797.732 449.794 798.159 449.066C798.585 448.339 799.201 447.741 799.942 447.337L824.792 433.046C825.519 432.587 826.362 432.343 827.222 432.343C828.083 432.343 828.925 432.587 829.653 433.046L854.477 447.33C855.204 447.754 855.809 448.357 856.237 449.081C856.664 449.805 856.898 450.627 856.917 451.468V474.027C856.917 475.724 857.846 477.415 859.338 478.164C860.065 478.626 860.909 478.871 861.771 478.871C862.633 478.871 863.477 478.626 864.204 478.164L911.265 450.538C912.708 449.696 913.902 448.485 914.723 447.03C915.544 445.575 915.964 443.928 915.939 442.257V419.891C915.939 416.509 914.067 413.327 911.265 411.629L832.622 365.776C831.171 364.945 829.53 364.505 827.858 364.498L827.852 364.504ZM610.994 433.143C611.414 433.143 611.84 433.24 612.221 433.433L639.292 449.221C640.04 449.596 640.421 450.525 640.421 451.28V482.857C640.421 483.799 640.04 484.561 639.292 484.935L612.214 500.723C611.834 500.909 611.417 501.005 610.994 501.005C610.571 501.005 610.154 500.909 609.774 500.723L582.697 484.935C581.948 484.561 581.567 483.612 581.567 482.857V451.28C581.567 450.338 581.955 449.596 582.697 449.215L609.774 433.433C610.155 433.243 610.568 433.143 610.994 433.143Z" fill="url(#paint1_linear_390_293)"/>
<path d="M399.442 366.134C397.992 365.303 396.349 364.865 394.678 364.865C393.007 364.865 391.365 365.303 389.915 366.134L311.271 411.813C309.828 412.652 308.634 413.861 307.813 415.314C306.992 416.767 306.572 418.413 306.598 420.082V511.615C306.598 515.004 308.47 518.199 311.271 519.89L389.915 565.564C391.365 566.395 393.007 566.832 394.678 566.832C396.349 566.832 397.992 566.395 399.442 565.564L478.079 519.89C481.067 518.199 482.752 515.004 482.752 511.615V420.082C482.752 416.7 480.88 413.498 478.079 411.813L399.442 366.134Z" fill="url(#paint2_linear_390_293)"/>
<path d="M478.265 411.813L399.254 366.133C398.478 365.74 397.665 365.427 396.827 365.197L308.282 517.631C309.03 518.573 309.96 519.322 310.896 519.89L389.914 565.563C392.154 566.88 394.768 567.254 397.195 566.499L480.324 413.504C479.778 412.789 479.073 412.21 478.265 411.813Z" fill="url(#paint3_linear_390_293)"/>
<path d="M478.265 519.886C480.511 518.569 482.19 516.316 482.938 513.87L396.446 365.006C394.213 364.632 391.779 364.819 389.727 366.136L311.27 411.622L395.891 566.876C397.007 566.689 398.318 566.314 399.441 565.746L478.265 519.886Z" fill="url(#paint4_linear_390_293)"/>
<defs>
<linearGradient id="paint0_linear_390_293" x1="629.627" y1="629.167" x2="629.627" y2="755.96" gradientUnits="userSpaceOnUse">
<stop stop-color="#69DE4A"/>
<stop offset="1" stop-color="#223A1C"/>
</linearGradient>
<linearGradient id="paint1_linear_390_293" x1="506.924" y1="445.114" x2="506.924" y2="571.907" gradientUnits="userSpaceOnUse">
<stop stop-color="#999999"/>
<stop offset="1" stop-color="#333333"/>
</linearGradient>
<linearGradient id="paint2_linear_390_293" x1="426.702" y1="400.148" x2="354.882" y2="545.751" gradientUnits="userSpaceOnUse">
<stop stop-color="#3F873F"/>
<stop offset="0.33" stop-color="#3F8B3D"/>
<stop offset="0.637" stop-color="#3E9638"/>
<stop offset="0.934" stop-color="#3DA92E"/>
<stop offset="1" stop-color="#3DAE2B"/>
</linearGradient>
<linearGradient id="paint3_linear_390_293" x1="382.727" y1="476.537" x2="583.113" y2="329.391" gradientUnits="userSpaceOnUse">
<stop offset="0.138" stop-color="#3F873F"/>
<stop offset="0.402" stop-color="#52A044"/>
<stop offset="0.713" stop-color="#64B749"/>
<stop offset="0.908" stop-color="#6ABF4B"/>
</linearGradient>
<linearGradient id="paint4_linear_390_293" x1="303.72" y1="465.819" x2="485.693" y2="465.819" gradientUnits="userSpaceOnUse">
<stop offset="0.092" stop-color="#6ABF4B"/>
<stop offset="0.287" stop-color="#64B749"/>
<stop offset="0.598" stop-color="#52A044"/>
<stop offset="0.862" stop-color="#3F873F"/>
</linearGradient>
</defs>
</svg>
