<svg width="1008" height="1035" viewBox="0 0 1008 1035" fill="none" xmlns="http://www.w3.org/2000/svg">
<path d="M299.721 24.457L373.096 72.0242L390.302 168.171L501.123 146.917L608.908 161.086L670.645 40.6501H740.224L765.273 210.425L816.888 366.536L803.731 519.358L830.804 617.276L794.117 737.712L814.105 909.005L192.695 907.487L219.009 749.351L192.442 696.217L184.346 604.119L208.888 494.057L184.346 426.754L203.575 312.644L261.263 239.269L268.347 125.158L299.721 24.457Z" fill="#D9D9D9"/>
<path fill-rule="evenodd" clip-rule="evenodd" d="M334.685 3.72818C343.611 7.2409 351.67 13.0266 358.985 20.6719C371.176 33.3177 381.466 51.4185 389.318 72.8668C397.211 94.439 402.336 118.326 404.278 142.295C430.297 127.575 459.174 118.611 488.955 116.011L491.063 115.846C527.017 112.953 562.557 119.441 593.552 135.435C597.726 137.625 601.817 139.98 605.825 142.46C607.892 118.945 612.934 95.5962 620.703 74.5198C628.555 53.0302 638.845 34.9707 650.995 22.2836C657.785 14.9385 666.09 9.15711 675.336 5.33989C685.957 1.20728 697.239 0.463413 708.232 3.6042C724.803 8.31538 739.019 18.8122 750.219 34.0616C760.468 47.9885 768.154 65.8413 773.403 87.2483C782.908 125.847 784.561 176.637 778.155 237.882L780.346 239.535L781.42 240.32C812.704 264.124 834.483 298.053 846.013 337.437C863.99 398.889 854.939 467.821 823.945 506.378L823.201 507.246L823.284 507.37C840.517 538.86 850.972 572.128 853.204 606.552L853.286 607.792C855.931 651.804 845.021 696.106 819.647 739.622L819.358 740.036L819.771 741.028C839.277 788.842 845.393 836.987 837.872 885.09L837.624 886.702C836.458 893.729 832.554 900.006 826.767 904.159C820.98 908.311 813.783 909.999 806.753 908.853C803.272 908.31 799.933 907.085 796.926 905.248C793.92 903.412 791.305 901 789.232 898.152C787.159 895.303 785.668 892.074 784.845 888.648C784.022 885.223 783.884 881.668 784.437 878.189C791.338 835.499 784.85 792.685 764.6 749.128C762.711 745.081 761.872 740.623 762.161 736.167C762.45 731.71 763.857 727.398 766.253 723.629L766.419 723.381C791.38 685.196 801.711 647.755 799.48 610.974C797.579 578.781 786.049 547.167 766.419 517.04C762.601 511.183 761.241 504.059 762.633 497.208C764.025 490.356 768.057 484.328 773.857 480.425L774.229 480.177C784.272 473.606 793.529 456.828 798.199 433.892C803.351 406.771 802.006 378.815 794.273 352.314C785.801 323.386 770.303 299.251 748.607 282.762C724.018 264 691.453 254.95 650.251 257.553C644.863 257.904 639.494 256.63 634.838 253.897C630.182 251.163 626.453 247.096 624.133 242.221C611.157 214.739 592.229 195.068 568.632 182.877C545.977 171.57 520.614 166.818 495.402 169.157C443.951 173.248 398.575 202.259 385.061 238.832C383.15 243.98 379.711 248.42 375.205 251.559C370.7 254.698 365.343 256.386 359.852 256.396C315.757 256.479 281.622 266.81 256.661 285.448C235.089 301.566 220.377 324.088 212.607 351.074C205.577 376.476 204.614 403.174 209.797 429.015C214.426 452.075 223.476 471.168 233.849 481.458L234.18 481.747C242.941 490.302 244.8 503.65 238.684 514.188C223.807 539.893 212.69 578.203 210.872 615.024C208.805 657.094 218.558 693.626 240.585 719.827L241.246 720.612C244.57 724.486 246.708 729.236 247.405 734.292C248.101 739.349 247.326 744.5 245.172 749.128C221.369 800.207 214.054 842.194 221.947 875.255C223.366 882.13 222.046 889.287 218.268 895.203C214.49 901.119 208.552 905.327 201.718 906.932C194.885 908.537 187.695 907.411 181.678 903.795C175.662 900.179 171.294 894.358 169.504 887.57C159.462 845.5 166.281 797.314 189.051 743.011L189.63 741.565L189.299 741.069C178.108 724.538 169.755 706.255 164.586 686.973L164.38 686.188C158.107 662.131 155.639 637.241 157.065 612.421C158.883 574.814 168.554 536.298 182.77 505.386L183.266 504.312L183.183 504.229C171.075 486.955 162.107 464.845 157.148 440.38L156.941 439.388C150.108 405.263 151.425 370.007 160.784 336.486C171.612 298.673 192.895 266.19 224.261 242.717C226.741 240.857 229.344 238.998 231.948 237.262C225.377 175.562 227.03 124.442 236.577 85.5952C241.825 64.1883 249.553 46.3354 259.802 32.4085C270.96 17.2005 285.176 6.70366 301.748 1.95116C312.741 -1.18963 324.064 -0.487089 334.685 3.68685V3.72818ZM504.783 379.383C543.464 379.383 579.17 392.318 605.867 414.716C631.902 436.495 647.4 465.754 647.4 494.889C647.4 531.587 630.621 560.184 600.577 578.451C574.955 593.948 540.613 601.469 501.27 601.469C459.572 601.469 423.949 590.766 398.244 571.136C372.746 551.713 358.447 524.437 358.447 494.889C358.447 465.672 374.895 436.33 402.088 414.469C429.694 392.276 466.143 379.383 504.783 379.383ZM504.783 416.411C476.112 416.161 448.202 425.629 425.602 443.273C406.551 458.563 395.765 477.78 395.765 494.93C395.765 512.618 404.443 529.19 420.974 541.794C439.777 556.134 467.424 564.441 501.27 564.441C534.29 564.441 562.144 558.366 581.112 546.836C600.246 535.265 610.041 518.486 610.041 494.889C610.041 477.408 599.874 458.109 581.815 442.984C561.813 426.246 534.703 416.411 504.783 416.411ZM532.141 466.415L532.306 466.581C537.265 472.821 536.232 481.871 529.992 486.831L517.925 496.336V514.767C517.903 518.87 516.255 522.797 513.342 525.687C510.429 528.576 506.489 530.193 502.386 530.182C498.283 530.193 494.343 528.576 491.43 525.687C488.517 522.797 486.869 518.87 486.848 514.767V495.757L475.648 486.748C474.171 485.564 472.943 484.099 472.034 482.439C471.126 480.778 470.555 478.953 470.355 477.071C470.156 475.188 470.33 473.285 470.87 471.47C471.41 469.655 472.303 467.966 473.499 466.498C475.939 463.529 479.451 461.642 483.273 461.247C487.096 460.852 490.92 461.982 493.914 464.391L502.799 471.499L511.891 464.308C514.875 461.95 518.662 460.851 522.445 461.245C526.227 461.639 529.706 463.494 532.141 466.415ZM323.857 387.111C343.611 387.111 359.687 403.228 359.687 423.106C359.698 432.634 355.926 441.777 349.2 448.526C342.474 455.276 333.344 459.079 323.816 459.101C314.302 459.068 305.189 455.266 298.473 448.526C291.757 441.787 287.986 432.661 287.986 423.147C287.964 413.619 291.726 404.471 298.444 397.714C305.162 390.957 314.329 387.143 323.857 387.111ZM683.643 387.111C703.479 387.111 719.514 403.228 719.514 423.106C719.525 432.634 715.753 441.777 709.027 448.526C702.301 455.276 693.171 459.079 683.643 459.101C674.129 459.068 665.015 455.266 658.3 448.526C651.584 441.787 647.813 432.661 647.813 423.147C647.791 413.619 651.552 404.471 658.27 397.714C664.989 390.957 674.114 387.143 683.643 387.111ZM315.468 53.7328L315.344 53.8154C310.557 55.8973 306.468 59.3114 303.566 63.6511L303.36 63.899C297.657 71.7097 292.697 83.1983 288.978 98.2824C281.953 126.88 280.052 165.685 283.854 213.252C301.624 207.962 321.006 204.656 341.876 203.457L342.289 203.416L343.074 202.011C344.975 198.622 347 195.357 349.19 192.134C354.273 160.272 350.099 122.21 338.735 91.1329C333.197 76.0902 326.461 64.2709 320.014 57.5348C318.683 56.1343 317.2 54.8868 315.592 53.8154L315.468 53.7328ZM694.594 55.3858L694.511 55.4272C692.904 56.4985 691.42 57.746 690.089 59.1465C683.643 65.8827 676.865 77.7433 671.369 92.786C659.384 125.599 655.375 166.181 661.864 199.077L664.261 203.085L664.591 203.664H665.831C686.341 203.669 706.744 206.62 726.415 212.425C729.969 165.975 727.985 127.996 721.125 99.9354C717.406 84.8514 712.447 73.3627 706.703 65.5521L706.537 65.3041C703.641 60.9492 699.552 57.5203 694.759 55.4272H694.594V55.3858Z" fill="black"/>
</svg>
