<svg width="1006" height="1006" viewBox="0 0 1006 1006" fill="none" xmlns="http://www.w3.org/2000/svg">
<path d="M75.4375 503.022C75.4375 627.217 266.837 727.907 502.938 727.907C739.038 727.907 930.438 627.217 930.438 503.022C930.438 378.826 739.031 278.137 502.938 278.137C266.837 278.137 75.4375 378.826 75.4375 503.022Z" fill="url(#paint0_radial_540_330)"/>
<path d="M502.938 711.208C729.813 711.208 913.738 617.993 913.738 503.022C913.738 388.038 729.813 294.836 502.938 294.836C276.062 294.836 92.1367 388.038 92.1367 503.022C92.1367 617.993 276.062 711.208 502.938 711.208Z" fill="#777BB3"/>
<path d="M307.705 528.837C326.361 528.837 340.282 525.397 349.092 518.617C357.816 511.897 363.834 500.268 366.994 484.05C369.933 468.887 368.811 458.306 363.654 452.588C358.39 446.75 347.001 443.791 329.808 443.791H299.99L283.471 528.837H307.705ZM210.188 633.594C209.504 633.593 208.828 633.441 208.21 633.148C207.592 632.856 207.046 632.43 206.612 631.901C206.178 631.372 205.866 630.754 205.699 630.09C205.532 629.427 205.514 628.735 205.646 628.064L249.445 402.704C249.652 401.651 250.217 400.702 251.045 400.018C251.874 399.335 252.913 398.96 253.987 398.957H348.397C378.069 398.957 400.152 407.013 414.039 422.904C427.986 438.868 432.301 461.205 426.844 489.266C424.619 500.695 420.799 511.309 415.488 520.821C409.96 530.605 402.907 539.444 394.594 547.006C384.368 556.571 372.792 563.518 360.214 567.599C347.843 571.634 331.945 573.678 312.988 573.678H274.754L263.839 629.84C263.633 630.897 263.066 631.85 262.235 632.535C261.404 633.22 260.361 633.594 259.284 633.594H210.188Z" fill="black"/>
<path d="M303.817 448.427H329.808C350.562 448.427 357.769 452.982 360.221 455.701C364.275 460.203 365.05 469.708 362.432 483.168C359.499 498.244 354.062 508.938 346.267 514.936C338.291 521.082 325.306 524.194 307.705 524.194H289.095L303.824 448.433L303.817 448.427ZM348.398 394.321H253.994C251.841 394.321 249.755 395.07 248.093 396.438C246.431 397.806 245.296 399.71 244.882 401.822L201.084 627.188C200.825 628.531 200.866 629.914 201.204 631.239C201.541 632.563 202.167 633.797 203.037 634.852C203.907 635.907 204.999 636.756 206.235 637.34C207.471 637.924 208.821 638.228 210.188 638.23H259.284C261.436 638.228 263.522 637.478 265.182 636.108C266.843 634.739 267.976 632.835 268.388 630.722L278.575 578.313H312.982C332.433 578.313 348.812 576.189 361.657 572.008C374.862 567.719 387.013 560.445 397.767 550.385C406.426 542.498 413.774 533.283 419.536 523.085C425.087 513.153 429.082 502.064 431.393 490.148C437.137 460.604 432.468 436.951 417.526 419.851C402.723 402.905 379.465 394.314 348.398 394.314V394.321ZM277.84 533.466H307.705C327.497 533.466 342.239 529.745 351.924 522.277C361.617 514.823 368.143 502.372 371.549 484.931C374.789 468.178 373.313 456.362 367.107 449.475C360.889 442.595 348.464 439.149 329.808 439.149H296.169L277.84 533.466ZM348.404 403.579C376.806 403.579 397.52 411.04 410.545 425.943C423.571 440.852 427.485 461.659 422.302 488.371C420.151 499.379 416.537 509.439 411.447 518.55C406.344 527.674 399.691 536.011 391.468 543.579C381.662 552.75 370.781 559.289 358.791 563.184C346.808 567.085 331.538 569.028 312.989 569.028H270.933L259.291 628.945H210.195L254 403.579H348.404Z" fill="white"/>
<path d="M539.395 573.674C538.71 573.675 538.034 573.525 537.415 573.233C536.795 572.941 536.248 572.516 535.813 571.988C535.377 571.46 535.064 570.842 534.896 570.178C534.727 569.515 534.708 568.822 534.839 568.15L554.21 468.436C556.061 458.951 555.607 452.151 552.941 449.265C551.305 447.509 546.402 444.563 531.9 444.563H496.792L472.438 569.927C472.229 570.983 471.659 571.933 470.827 572.615C469.995 573.298 468.952 573.67 467.876 573.668H419.181C418.497 573.668 417.821 573.518 417.202 573.226C416.583 572.935 416.036 572.511 415.6 571.984C415.164 571.457 414.85 570.84 414.68 570.177C414.511 569.514 414.489 568.822 414.618 568.15L458.424 342.784C458.631 341.729 459.199 340.778 460.03 340.094C460.861 339.411 461.903 339.037 462.979 339.037H511.674C512.358 339.037 513.034 339.187 513.653 339.479C514.272 339.77 514.819 340.194 515.255 340.721C515.691 341.248 516.005 341.865 516.175 342.528C516.344 343.191 516.365 343.883 516.236 344.555L505.669 398.954H543.429C572.199 398.954 591.704 404.017 603.066 414.457C614.642 425.098 618.262 442.111 613.807 465.043L593.427 569.927C593.218 570.982 592.65 571.931 591.819 572.613C590.988 573.295 589.946 573.668 588.871 573.668H539.395V573.674Z" fill="black"/>
<path d="M511.685 334.402H462.983C460.829 334.403 458.743 335.152 457.081 336.522C455.418 337.891 454.284 339.796 453.872 341.91L410.073 567.27C409.814 568.612 409.854 569.996 410.191 571.322C410.528 572.647 411.154 573.882 412.024 574.938C412.894 575.993 413.986 576.844 415.223 577.428C416.459 578.012 417.81 578.316 419.178 578.318H467.879C470.033 578.317 472.12 577.568 473.782 576.198C475.444 574.829 476.578 572.924 476.99 570.81L500.616 449.206H531.891C546.372 449.206 549.418 452.299 549.532 452.439C550.414 453.374 551.569 457.749 549.659 467.562L530.288 567.27C530.028 568.613 530.068 569.997 530.406 571.323C530.743 572.65 531.37 573.885 532.24 574.94C533.111 575.996 534.204 576.846 535.442 577.43C536.679 578.014 538.03 578.317 539.399 578.318H588.882C591.034 578.316 593.12 577.566 594.78 576.196C596.441 574.827 597.574 572.923 597.986 570.81L618.366 465.939C623.142 441.317 619.054 422.855 606.209 411.052C593.945 399.79 573.412 394.319 543.433 394.319H511.304L520.796 345.457C521.057 344.113 521.017 342.728 520.68 341.401C520.343 340.074 519.717 338.838 518.846 337.782C517.976 336.726 516.882 335.875 515.644 335.29C514.406 334.706 513.054 334.403 511.685 334.402ZM511.685 343.687L500.042 403.591H543.433C570.733 403.591 589.57 408.36 599.923 417.885C610.297 427.41 613.396 442.834 609.262 464.175L588.875 569.04H539.399L558.777 469.325C560.981 457.983 560.166 450.248 556.338 446.12C552.511 441.999 544.362 439.935 531.904 439.935H492.968L467.879 569.033H419.171L462.976 343.667H511.685V343.687Z" fill="white"/>
<path d="M690.882 528.837C709.538 528.837 723.465 525.397 732.282 518.617C740.993 511.897 747.018 500.268 750.177 484.05C753.116 468.887 752.001 458.306 746.837 452.588C741.574 446.75 730.185 443.791 712.991 443.791H683.18L666.648 528.837H690.882ZM593.385 633.594C592.7 633.595 592.023 633.445 591.403 633.153C590.783 632.861 590.235 632.435 589.8 631.906C589.364 631.377 589.051 630.758 588.883 630.094C588.716 629.429 588.697 628.736 588.829 628.064L632.628 402.704C632.836 401.649 633.403 400.698 634.234 400.014C635.065 399.331 636.108 398.957 637.184 398.957H731.588C761.259 398.957 783.342 407.013 797.222 422.904C811.176 438.868 815.485 461.205 810.027 489.266C807.942 500.32 804.111 510.971 798.678 520.821C793.149 530.604 786.096 539.443 777.784 547.006C767.565 556.571 755.975 563.518 743.404 567.599C731.033 571.634 715.136 573.678 696.172 573.678H657.944L647.036 629.84C646.83 630.899 646.262 631.852 645.429 632.537C644.597 633.222 643.552 633.596 642.474 633.594H593.385Z" fill="black"/>
<path d="M687.001 448.427H712.992C733.745 448.427 740.953 452.982 743.398 455.701C747.472 460.203 748.234 469.708 745.622 483.168C742.683 498.244 737.246 508.938 729.45 514.936C721.468 521.082 708.483 524.194 690.888 524.194H672.279L687.001 448.427ZM731.581 394.321H637.177C635.025 394.323 632.941 395.072 631.281 396.44C629.62 397.808 628.486 399.711 628.073 401.822L584.267 627.188C584.009 628.531 584.05 629.915 584.388 631.24C584.726 632.565 585.352 633.8 586.223 634.855C587.093 635.909 588.186 636.759 589.423 637.342C590.66 637.926 592.011 638.229 593.378 638.23H642.474C644.627 638.228 646.712 637.478 648.373 636.108C650.033 634.739 651.167 632.835 651.579 630.722L661.765 578.313H696.165C715.61 578.313 731.995 576.189 744.834 572.008C758.046 567.719 770.196 560.445 780.957 550.379C789.614 542.493 796.96 533.28 802.72 523.085C808.277 513.153 812.258 502.064 814.576 490.148C820.321 460.604 815.658 436.951 800.709 419.851C785.907 402.905 762.655 394.314 731.574 394.314L731.581 394.321ZM661.024 533.466H690.882C710.68 533.466 725.416 529.745 735.115 522.277C744.8 514.823 751.333 502.372 754.726 484.931C757.979 468.178 756.503 456.362 750.284 449.475C744.072 442.595 731.641 439.149 712.992 439.149H679.359L661.024 533.466ZM731.581 403.579C759.976 403.579 780.704 411.04 793.722 425.943C806.748 440.852 810.669 461.659 805.472 488.371C803.334 499.379 799.714 509.439 794.624 518.55C789.527 527.674 782.868 536.011 774.638 543.579C764.839 552.75 753.951 559.289 741.961 563.184C729.985 567.085 714.722 569.028 696.165 569.028H654.117L642.461 628.945H593.365L637.17 403.579H731.581Z" fill="white"/>
<defs>
<radialGradient id="paint0_radial_540_330" cx="0" cy="0" r="1" gradientUnits="userSpaceOnUse" gradientTransform="translate(332.111 357.197) scale(561.37 561.37)">
<stop stop-color="#AEB2D5"/>
<stop offset="0.3" stop-color="#AEB2D5"/>
<stop offset="0.75" stop-color="#484C89"/>
<stop offset="1" stop-color="#484C89"/>
</radialGradient>
</defs>
</svg>
