<svg width="1006" height="1006" viewBox="0 0 1006 1006" fill="none" xmlns="http://www.w3.org/2000/svg">
<path d="M815.917 430.343H588.952C586.254 430.342 583.583 429.81 581.091 428.777C578.599 427.744 576.334 426.23 574.427 424.322C572.52 422.414 571.008 420.148 569.976 417.656C568.944 415.163 568.413 412.492 568.414 409.794V173.237C568.425 169.068 567.612 164.938 566.022 161.085C564.431 157.232 562.094 153.731 559.146 150.784C556.197 147.837 552.695 145.502 548.841 143.914C544.987 142.325 540.857 141.514 536.688 141.528H455.62C451.45 141.512 447.317 142.321 443.461 143.909C439.605 145.496 436.1 147.831 433.149 150.778C430.199 153.725 427.86 157.226 426.267 161.081C424.675 164.935 423.861 169.067 423.871 173.237V408.214C423.88 411.122 423.314 414.004 422.206 416.693C421.098 419.382 419.47 421.825 417.415 423.883C415.36 425.941 412.918 427.573 410.23 428.684C407.543 429.795 404.662 430.365 401.754 430.36L327.344 430.625C315.066 430.625 304.933 420.751 305.192 408.473L305.723 173.265C305.737 169.093 304.925 164.959 303.335 161.102C301.745 157.244 299.407 153.74 296.456 150.79C293.506 147.84 290.001 145.503 286.143 143.913C282.286 142.323 278.152 141.513 273.979 141.528H192.917C188.746 141.516 184.613 142.328 180.757 143.919C176.901 145.51 173.397 147.847 170.447 150.796C167.497 153.746 165.159 157.249 163.568 161.105C161.976 164.961 161.163 169.094 161.174 173.265V835.467C161.174 850.91 173.7 863.735 189.442 863.735H815.917C823.411 863.726 830.596 860.744 835.893 855.443C841.191 850.142 844.169 842.956 844.173 835.462V458.593C844.197 454.876 843.483 451.191 842.071 447.753C840.66 444.314 838.579 441.19 835.95 438.562C833.322 435.934 830.197 433.854 826.758 432.443C823.319 431.032 819.634 430.318 815.917 430.343ZM709.521 678.906C709.49 688.66 705.601 698.006 698.703 704.902C691.806 711.799 682.459 715.686 672.705 715.716H608.7C598.948 715.683 589.605 711.795 582.709 704.898C575.814 698.002 571.927 688.658 571.895 678.906V614.912C571.927 605.16 575.814 595.816 582.709 588.92C589.605 582.023 598.948 578.135 608.7 578.102H672.7C682.453 578.132 691.798 582.018 698.696 588.914C705.593 595.809 709.483 605.153 709.515 614.906L709.521 678.906Z" fill="url(#paint0_radial_556_266)"/>
<defs>
<radialGradient id="paint0_radial_556_266" cx="0" cy="0" r="1" gradientUnits="userSpaceOnUse" gradientTransform="translate(634.488 645.989) rotate(144.577) scale(758.198 717.037)">
<stop stop-color="#FF6600"/>
<stop offset="1" stop-color="#702D00"/>
</radialGradient>
</defs>
</svg>
