<svg width="1006" height="1006" viewBox="0 0 1006 1006" fill="none" xmlns="http://www.w3.org/2000/svg">
<path d="M502.5 244.75C388.174 244.75 316.914 302.367 288.56 416.531C331.465 359.076 381.725 337.915 438.435 352.465C470.84 360.567 494.399 384.126 520.194 410.828C562.353 453.732 610.961 503.248 717.186 503.248C831.35 503.248 902.61 445.631 930.964 331.467C888.06 388.922 837.799 410.082 781.089 395.532C748.684 387.431 725.287 363.872 699.331 337.17C657.171 294.265 608.563 244.75 502.5 244.75ZM287.814 501.595C173.488 501.595 102.229 559.05 73.874 673.344C116.779 615.759 167.04 594.76 223.749 609.31C256.154 617.412 279.713 640.971 305.508 667.673C347.667 710.577 396.275 760.093 502.5 760.093C616.664 760.093 687.924 702.476 716.279 588.312C673.374 645.767 623.113 666.927 566.404 652.215C533.998 644.114 510.602 620.717 484.645 594.015C443.231 550.948 394.623 501.595 287.814 501.595Z" fill="url(#paint0_linear_530_419)"/>
<defs>
<linearGradient id="paint0_linear_530_419" x1="502.419" y1="244.75" x2="502.419" y2="760.093" gradientUnits="userSpaceOnUse">
<stop offset="0.274038" stop-color="#38BDF8"/>
<stop offset="1" stop-color="#2287B4"/>
</linearGradient>
</defs>
</svg>
