<svg width="1006" height="1006" viewBox="0 0 1006 1006" fill="none" xmlns="http://www.w3.org/2000/svg">
<path d="M502.559 794.707C485.795 794.707 469.717 801.367 457.863 813.221C446.009 825.075 439.35 841.152 439.35 857.917C439.35 874.681 446.009 890.758 457.863 902.613C469.717 914.467 485.795 921.126 502.559 921.126C519.323 921.126 535.401 914.467 547.255 902.613C559.109 890.758 565.769 874.681 565.769 857.917C565.769 841.152 559.109 825.075 547.255 813.221C535.401 801.367 519.323 794.707 502.559 794.707ZM502.559 888.428C496.417 888.427 490.414 886.6 485.313 883.178C480.213 879.756 476.245 874.895 473.915 869.212C471.585 863.529 470.998 857.281 472.228 851.264C473.458 845.246 476.45 839.731 480.824 835.418C485.198 831.106 490.755 828.192 496.789 827.047C502.824 825.902 509.062 826.577 514.712 828.987C520.361 831.397 525.166 835.433 528.515 840.582C531.865 845.73 533.607 851.759 533.521 857.9C533.521 861.946 532.718 865.951 531.156 869.684C529.595 873.416 527.308 876.801 524.427 879.641C521.546 882.482 518.129 884.721 514.375 886.23C510.621 887.738 506.605 888.485 502.559 888.428Z" fill="url(#paint0_linear_585_271)"/>
<path fill-rule="evenodd" clip-rule="evenodd" d="M826.357 591.982C834.273 593.252 841.454 597.326 846.564 603.472C851.123 610.167 853.033 618.317 851.922 626.34C850.811 634.364 846.759 641.688 840.552 646.892L565.335 850.031C563.941 839.009 559.665 828.55 552.939 819.707C546.213 810.864 537.275 803.951 527.025 799.664L803.578 596.592C810.364 592.352 818.456 590.715 826.357 591.982Z" fill="url(#paint1_linear_585_271)"/>
<path fill-rule="evenodd" clip-rule="evenodd" d="M440.028 849.081L165.58 646.477C159.182 641.53 154.908 634.332 153.63 626.346C152.352 618.36 154.165 610.187 158.7 603.491C163.766 597.261 170.95 593.115 178.879 591.846C186.809 590.577 194.928 592.273 201.686 596.61L478.238 799.683C468.138 803.904 459.306 810.676 452.608 819.335C445.911 827.994 441.576 838.244 440.028 849.081Z" fill="url(#paint2_linear_585_271)"/>
<path d="M244.692 269.014C236.179 268.901 228.046 265.469 222.025 259.449C216.005 253.429 212.573 245.296 212.461 236.783V155.954C211.931 151.378 212.374 146.741 213.763 142.349C215.152 137.956 217.454 133.907 220.518 130.467C223.582 127.027 227.34 124.274 231.543 122.389C235.747 120.504 240.302 119.529 244.909 119.529C249.516 119.529 254.071 120.504 258.274 122.389C262.478 124.274 266.235 127.027 269.3 130.467C272.364 133.907 274.666 137.956 276.055 142.349C277.444 146.741 277.887 151.378 277.357 155.954V236.783C277.243 245.37 273.751 253.568 267.638 259.6C261.524 265.632 253.281 269.014 244.692 269.014ZM243.823 554.885C252.487 554.885 260.795 551.443 266.921 545.317C273.047 539.191 276.489 530.883 276.489 522.219C276.489 513.556 273.047 505.248 266.921 499.122C260.795 492.996 252.487 489.554 243.823 489.554C235.16 489.554 226.852 492.996 220.726 499.122C214.6 505.248 211.158 513.556 211.158 522.219C211.158 530.883 214.6 539.191 220.726 545.317C226.852 551.443 235.16 554.885 243.823 554.885ZM243.823 459.895C248.113 459.895 252.361 459.05 256.324 457.408C260.287 455.767 263.888 453.361 266.921 450.327C269.955 447.294 272.361 443.693 274.002 439.73C275.644 435.767 276.489 431.519 276.489 427.23C276.489 422.94 275.644 418.692 274.002 414.729C272.361 410.766 269.955 407.165 266.921 404.132C263.888 401.099 260.287 398.692 256.324 397.051C252.361 395.409 248.113 394.564 243.823 394.564C235.16 394.564 226.852 398.006 220.726 404.132C214.6 410.258 211.158 418.566 211.158 427.23C211.158 435.893 214.6 444.202 220.726 450.327C226.852 456.453 235.16 459.895 243.823 459.895ZM243.823 364.438C252.487 364.438 260.795 360.996 266.921 354.87C273.047 348.744 276.489 340.436 276.489 331.772C276.489 323.109 273.047 314.8 266.921 308.674C260.795 302.549 252.487 299.107 243.823 299.107C235.16 299.107 226.852 302.549 220.726 308.674C214.6 314.8 211.158 323.109 211.158 331.772C211.158 340.436 214.6 348.744 220.726 354.87C226.852 360.996 235.16 364.438 243.823 364.438Z" fill="url(#paint3_linear_585_271)"/>
<path d="M760.567 363.626C751.973 363.512 743.771 360.015 737.738 353.894C731.704 347.774 728.326 339.522 728.336 330.927V250.099C728.336 241.551 731.732 233.353 737.776 227.308C743.821 221.264 752.019 217.868 760.567 217.868C769.115 217.868 777.313 221.264 783.358 227.308C789.402 233.353 792.798 241.551 792.798 250.099V330.927C792.865 335.2 792.08 339.444 790.489 343.41C788.899 347.377 786.535 350.987 783.535 354.031C780.535 357.074 776.959 359.49 773.016 361.138C769.072 362.785 764.841 363.631 760.567 363.626ZM761.402 555.342C765.692 555.342 769.939 554.497 773.902 552.856C777.866 551.214 781.467 548.808 784.5 545.775C787.533 542.742 789.939 539.141 791.581 535.177C793.222 531.214 794.067 526.967 794.067 522.677C794.067 518.387 793.222 514.14 791.581 510.177C789.939 506.213 787.533 502.612 784.5 499.579C781.467 496.546 777.866 494.14 773.902 492.498C769.939 490.857 765.692 490.012 761.402 490.012C752.739 490.012 744.43 493.453 738.304 499.579C732.178 505.705 728.737 514.014 728.737 522.677C728.737 531.34 732.178 539.649 738.304 545.775C744.43 551.901 752.739 555.342 761.402 555.342ZM761.402 458.616C770.065 458.616 778.374 455.174 784.5 449.048C790.626 442.922 794.067 434.614 794.067 425.95C794.067 417.287 790.626 408.979 784.5 402.853C778.374 396.727 770.065 393.285 761.402 393.285C752.739 393.285 744.43 396.727 738.304 402.853C732.178 408.979 728.737 417.287 728.737 425.95C728.737 434.614 732.178 442.922 738.304 449.048C744.43 455.174 752.739 458.616 761.402 458.616ZM761.402 188.643C765.692 188.643 769.939 187.798 773.902 186.157C777.866 184.515 781.467 182.109 784.5 179.076C787.533 176.042 789.939 172.441 791.581 168.478C793.222 164.515 794.067 160.267 794.067 155.978C794.067 151.688 793.222 147.44 791.581 143.477C789.939 139.514 787.533 135.913 784.5 132.88C781.467 129.847 777.866 127.441 773.902 125.799C769.939 124.157 765.692 123.312 761.402 123.312C752.739 123.313 744.43 126.754 738.304 132.88C732.178 139.006 728.737 147.314 728.737 155.978C728.737 164.641 732.178 172.95 738.304 179.076C744.43 185.202 752.739 188.643 761.402 188.643Z" fill="url(#paint4_linear_585_271)"/>
<path d="M502.544 651.196C494.031 651.084 485.898 647.652 479.878 641.631C473.857 635.611 470.426 627.478 470.313 618.965V536.834C471.235 528.875 475.051 521.533 481.033 516.203C487.016 510.874 494.749 507.929 502.761 507.929C510.774 507.929 518.506 510.874 524.489 516.203C530.472 521.533 534.287 528.875 535.209 536.834V618.097C535.276 622.425 534.48 626.723 532.867 630.741C531.255 634.758 528.858 638.414 525.817 641.496C522.776 644.577 519.152 647.021 515.156 648.687C511.161 650.352 506.873 651.205 502.544 651.196ZM502.544 746.219C511.208 746.219 519.516 742.778 525.642 736.652C531.768 730.526 535.209 722.217 535.209 713.554C535.209 704.891 531.768 696.582 525.642 690.456C519.516 684.33 511.208 680.889 502.544 680.889C493.881 680.889 485.572 684.33 479.446 690.456C473.32 696.582 469.879 704.891 469.879 713.554C469.879 722.217 473.32 730.526 479.446 736.652C485.572 742.778 493.881 746.219 502.544 746.219ZM502.544 474.944C511.208 474.944 519.516 471.502 525.642 465.376C531.768 459.251 535.209 450.942 535.209 442.279C535.209 433.615 531.768 425.307 525.642 419.181C519.516 413.055 511.208 409.613 502.544 409.613C493.881 409.613 485.572 413.055 479.446 419.181C473.32 425.307 469.879 433.615 469.879 442.279C469.879 450.942 473.32 459.251 479.446 465.376C485.572 471.502 493.881 474.944 502.544 474.944ZM502.544 379.52C511.208 379.52 519.516 376.078 525.642 369.953C531.768 363.827 535.209 355.518 535.209 346.855C535.209 338.191 531.768 329.883 525.642 323.757C519.516 317.631 511.208 314.189 502.544 314.189C493.881 314.189 485.572 317.631 479.446 323.757C473.32 329.883 469.879 338.191 469.879 346.855C469.879 355.518 473.32 363.827 479.446 369.953C485.572 376.078 493.881 379.52 502.544 379.52Z" fill="url(#paint5_linear_585_271)"/>
<path d="M631.504 459.441C622.991 459.329 614.858 455.897 608.838 449.877C602.817 443.857 599.385 435.724 599.273 427.21V346.382C598.449 339.476 599.853 332.487 603.28 326.434C606.708 320.382 611.979 315.583 618.326 312.738C624.673 309.893 631.763 309.15 638.562 310.618C645.361 312.086 651.512 315.688 656.12 320.898C659.181 324.339 661.48 328.388 662.867 332.78C664.254 337.172 664.698 341.807 664.169 346.382V427.21C664.055 435.798 660.563 443.996 654.45 450.028C648.336 456.06 640.093 459.442 631.504 459.441ZM631.938 283.623C636.228 283.623 640.476 282.779 644.439 281.137C648.402 279.495 652.003 277.089 655.036 274.056C658.069 271.023 660.475 267.422 662.117 263.459C663.759 259.496 664.604 255.248 664.604 250.958C664.604 246.669 663.759 242.421 662.117 238.458C660.475 234.495 658.069 230.894 655.036 227.86C652.003 224.827 648.402 222.421 644.439 220.779C640.476 219.138 636.228 218.293 631.938 218.293C623.275 218.293 614.966 221.734 608.84 227.86C602.715 233.986 599.273 242.295 599.273 250.958C599.273 259.622 602.715 267.93 608.84 274.056C614.966 280.182 623.275 283.623 631.938 283.623ZM631.938 649.02C640.602 649.02 648.91 645.579 655.036 639.453C661.162 633.327 664.604 625.018 664.604 616.355C664.604 607.692 661.162 599.383 655.036 593.257C648.91 587.131 640.602 583.69 631.938 583.69C623.275 583.69 614.966 587.131 608.84 593.257C602.715 599.383 599.273 607.692 599.273 616.355C599.273 625.018 602.715 633.327 608.84 639.453C614.966 645.579 623.275 649.02 631.938 649.02ZM631.938 553.596C640.602 553.596 648.91 550.155 655.036 544.029C661.162 537.903 664.604 529.594 664.604 520.931C664.604 512.268 661.162 503.959 655.036 497.833C648.91 491.707 640.602 488.266 631.938 488.266C623.275 488.266 614.966 491.707 608.84 497.833C602.715 503.959 599.273 512.268 599.273 520.931C599.273 529.594 602.715 537.903 608.84 544.029C614.966 550.155 623.275 553.596 631.938 553.596Z" fill="url(#paint6_linear_585_271)"/>
<path d="M373.135 649.054C381.798 649.054 390.107 645.612 396.233 639.486C402.359 633.36 405.8 625.052 405.8 616.388C405.8 607.725 402.359 599.416 396.233 593.29C390.107 587.165 381.798 583.723 373.135 583.723C364.472 583.723 356.163 587.165 350.037 593.29C343.911 599.416 340.47 607.725 340.47 616.388C340.47 625.052 343.911 633.36 350.037 639.486C356.163 645.612 364.472 649.054 373.135 649.054ZM373.135 379.515C381.798 379.515 390.107 376.074 396.233 369.948C402.359 363.822 405.8 355.513 405.8 346.85C405.8 338.186 402.359 329.878 396.233 323.752C390.107 317.626 381.798 314.185 373.135 314.185C364.472 314.185 356.163 317.626 350.037 323.752C343.911 329.878 340.47 338.186 340.47 346.85C340.47 355.513 343.911 363.822 350.037 369.948C356.163 376.074 364.472 379.515 373.135 379.515ZM373.135 283.657C381.803 283.657 390.116 280.214 396.245 274.085C402.374 267.955 405.817 259.643 405.817 250.975C405.817 242.307 402.374 233.994 396.245 227.865C390.116 221.736 381.803 218.293 373.135 218.293C364.467 218.293 356.155 221.736 350.025 227.865C343.896 233.994 340.453 242.307 340.453 250.975C340.453 259.643 343.896 267.955 350.025 274.085C356.155 280.214 364.467 283.657 373.135 283.657ZM373.569 553.63C365.121 553.636 357 550.369 350.909 544.515C344.818 538.661 341.232 530.675 340.904 522.233V440.57C340.904 432.022 344.3 423.824 350.344 417.78C356.389 411.735 364.587 408.339 373.135 408.339C381.683 408.339 389.881 411.735 395.926 417.78C401.97 423.824 405.366 432.022 405.366 440.57V522.233C405.143 530.559 401.709 538.475 395.783 544.327C389.856 550.179 381.897 553.512 373.569 553.63Z" fill="url(#paint7_linear_585_271)"/>
<defs>
<linearGradient id="paint0_linear_585_271" x1="502.559" y1="794.707" x2="502.559" y2="921.126" gradientUnits="userSpaceOnUse">
<stop stop-color="#4285F4"/>
<stop offset="1" stop-color="#264D8E"/>
</linearGradient>
<linearGradient id="paint1_linear_585_271" x1="689.628" y1="591.564" x2="689.628" y2="850.031" gradientUnits="userSpaceOnUse">
<stop offset="0.384615" stop-color="#669DF6"/>
<stop offset="1" stop-color="#3C5C90"/>
</linearGradient>
<linearGradient id="paint2_linear_585_271" x1="315.734" y1="591.436" x2="315.734" y2="849.081" gradientUnits="userSpaceOnUse">
<stop offset="0.274038" stop-color="#AECBFA"/>
<stop offset="1" stop-color="#677894"/>
</linearGradient>
<linearGradient id="paint3_linear_585_271" x1="244.366" y1="119.529" x2="244.366" y2="554.885" gradientUnits="userSpaceOnUse">
<stop offset="0.274038" stop-color="#AECBFA"/>
<stop offset="1" stop-color="#677894"/>
</linearGradient>
<linearGradient id="paint4_linear_585_271" x1="761.202" y1="123.312" x2="761.202" y2="555.342" gradientUnits="userSpaceOnUse">
<stop stop-color="#4285F4"/>
<stop offset="1" stop-color="#264D8E"/>
</linearGradient>
<linearGradient id="paint5_linear_585_271" x1="502.546" y1="314.189" x2="502.546" y2="746.219" gradientUnits="userSpaceOnUse">
<stop offset="0.384615" stop-color="#669DF6"/>
<stop offset="1" stop-color="#3C5C90"/>
</linearGradient>
<linearGradient id="paint6_linear_585_271" x1="618.23" y1="165.527" x2="623.23" y2="603.027" gradientUnits="userSpaceOnUse">
<stop stop-color="#4285F4"/>
<stop offset="1" stop-color="#264D8E"/>
</linearGradient>
<linearGradient id="paint7_linear_585_271" x1="333.23" y1="226.027" x2="457.23" y2="668.027" gradientUnits="userSpaceOnUse">
<stop offset="0.274038" stop-color="#AECBFA"/>
<stop offset="1" stop-color="#677894"/>
</linearGradient>
</defs>
</svg>
