<svg width="1006" height="1006" viewBox="0 0 1006 1006" fill="none" xmlns="http://www.w3.org/2000/svg">
<path d="M843.032 235.64L520.856 811.756C514.199 823.652 497.109 823.719 490.362 811.891L161.792 235.708C154.428 222.796 165.449 207.176 180.082 209.784L502.605 267.425C504.664 267.801 506.773 267.801 508.831 267.425L824.602 209.874C839.173 207.221 850.261 222.712 843.032 235.64Z" fill="url(#paint0_linear_530_350)"/>
<path d="M656.228 134.179L417.824 180.888C415.921 181.26 414.196 182.253 412.919 183.712C411.642 185.171 410.885 187.012 410.768 188.948L396.09 436.673C396.012 438.032 396.25 439.39 396.787 440.64C397.324 441.891 398.145 442.999 399.184 443.877C400.223 444.756 401.453 445.38 402.775 445.701C404.098 446.022 405.477 446.03 406.803 445.726L473.188 430.386C474.617 430.057 476.107 430.093 477.519 430.49C478.931 430.886 480.221 431.631 481.271 432.656C482.32 433.681 483.096 434.953 483.526 436.356C483.956 437.758 484.027 439.246 483.732 440.683L464.006 537.26C463.705 538.746 463.794 540.286 464.266 541.727C464.738 543.168 465.576 544.463 466.698 545.483C467.82 546.503 469.188 547.215 470.668 547.548C472.148 547.881 473.688 547.825 475.14 547.384L516.128 534.915C522.483 532.986 528.596 538.572 527.261 545.078L495.909 696.777C493.957 706.267 506.576 711.439 511.837 703.306L515.343 697.877L709.629 310.146C712.893 303.64 707.267 296.237 700.15 297.616L631.808 310.808C630.337 311.094 628.818 310.997 627.396 310.526C625.973 310.055 624.696 309.227 623.686 308.12C622.676 307.013 621.968 305.666 621.629 304.207C621.29 302.747 621.332 301.225 621.751 299.787L666.341 145.2C666.76 143.756 666.8 142.229 666.458 140.766C666.115 139.302 665.401 137.951 664.385 136.844C663.369 135.736 662.085 134.909 660.656 134.443C659.227 133.976 657.702 133.885 656.228 134.179Z" fill="url(#paint1_linear_530_350)"/>
<defs>
<linearGradient id="paint0_linear_530_350" x1="153.761" y1="189.198" x2="554.75" y2="733.771" gradientUnits="userSpaceOnUse">
<stop stop-color="#41D1FF"/>
<stop offset="1" stop-color="#BD34FE"/>
</linearGradient>
<linearGradient id="paint1_linear_530_350" x1="484.097" y1="146.854" x2="556.634" y2="644.449" gradientUnits="userSpaceOnUse">
<stop stop-color="#FFEA83"/>
<stop offset="0.083" stop-color="#FFDD35"/>
<stop offset="1" stop-color="#FFA800"/>
</linearGradient>
</defs>
</svg>
