<svg width="1006" height="1006" viewBox="0 0 1006 1006" fill="none" xmlns="http://www.w3.org/2000/svg">
<mask id="mask0_537_306" style="mask-type:alpha" maskUnits="userSpaceOnUse" x="129" y="131" width="746" height="743">
<path fill-rule="evenodd" clip-rule="evenodd" d="M657.988 869.97C663.92 872.283 670.264 873.35 676.627 873.106C682.989 872.861 689.233 871.31 694.97 868.549L848.449 794.695C856.352 790.891 863.022 784.932 867.689 777.504C872.356 770.077 874.832 761.483 874.831 752.711V251.95C874.833 243.177 872.358 234.581 867.691 227.153C863.023 219.724 856.353 213.764 848.449 209.959L694.97 136.117C686.297 131.944 676.542 130.571 667.055 132.186C657.567 133.801 648.816 138.325 642.013 145.133L348.194 413.186L220.219 316.037C214.446 311.653 207.321 309.429 200.079 309.751C192.838 310.072 185.938 312.918 180.575 317.795L139.528 355.133C136.329 358.042 133.773 361.587 132.023 365.541C130.272 369.495 129.367 373.771 129.363 378.095C129.36 382.419 130.259 386.696 132.004 390.652C133.748 394.609 136.299 398.158 139.493 401.072L250.48 502.327L139.499 603.588C136.306 606.503 133.757 610.052 132.014 614.008C130.271 617.964 129.372 622.24 129.375 626.563C129.378 630.886 130.284 635.161 132.033 639.114C133.782 643.067 136.337 646.612 139.534 649.522L180.581 686.859C185.942 691.738 192.842 694.586 200.084 694.909C207.326 695.231 214.452 693.007 220.225 688.624L348.2 591.48L642.019 859.528C646.562 864.079 651.996 867.635 657.988 869.97ZM688.575 333.101L465.64 502.327L688.581 671.56L688.575 333.101Z" fill="white"/>
</mask>
<g mask="url(#mask0_537_306)">
<path d="M848.454 210.083L694.853 136.119C686.177 131.944 676.418 130.568 666.926 132.183C657.434 133.799 648.679 138.325 641.873 145.135L139.045 603.59C135.849 606.504 133.298 610.052 131.553 614.008C129.808 617.964 128.909 622.241 128.912 626.565C128.915 630.889 129.821 635.164 131.572 639.118C133.323 643.071 135.88 646.615 139.079 649.524L180.15 686.861C185.516 691.74 192.42 694.587 199.665 694.91C206.91 695.232 214.039 693.009 219.817 688.626L825.339 229.262C845.653 213.852 874.831 228.341 874.831 253.839V252.057C874.83 243.286 872.355 234.694 867.689 227.268C863.023 219.842 856.356 213.889 848.454 210.083Z" fill="#0065A9"/>
<g filter="url(#filter0_d_537_306)">
<path d="M848.456 794.58L694.855 868.532C686.181 872.709 676.422 874.087 666.93 872.473C657.438 870.86 648.683 866.337 641.875 859.528L139.046 401.067C135.851 398.154 133.3 394.606 131.555 390.649C129.81 386.693 128.911 382.416 128.914 378.093C128.917 373.769 129.823 369.493 131.574 365.54C133.325 361.586 135.882 358.042 139.081 355.134L180.152 317.796C185.518 312.917 192.421 310.07 199.667 309.748C206.912 309.425 214.041 311.648 219.819 316.032L825.341 775.39C845.655 790.806 874.833 776.316 874.833 750.819V752.601C874.832 761.371 872.357 769.963 867.691 777.389C863.025 784.815 856.358 790.774 848.456 794.58Z" fill="#007ACC"/>
</g>
<g filter="url(#filter1_d_537_306)">
<path d="M694.859 868.548C686.182 872.721 676.421 874.094 666.929 872.478C657.437 870.862 648.681 866.336 641.873 859.527C659.065 876.719 688.465 864.541 688.465 840.226V164.421C688.465 140.106 659.065 127.928 641.873 145.126C648.681 138.317 657.437 133.791 666.929 132.175C676.421 130.559 686.182 131.932 694.859 136.105L848.431 209.964C856.339 213.767 863.013 219.726 867.683 227.154C872.354 234.583 874.831 243.18 874.831 251.955V752.71C874.831 761.485 872.354 770.081 867.683 777.51C863.013 784.939 856.339 790.898 848.431 794.7L694.859 868.548Z" fill="#1F9CF0"/>
</g>
<path opacity="0.25" fill-rule="evenodd" clip-rule="evenodd" d="M657.54 869.974C663.471 872.286 669.814 873.353 676.176 873.108C682.537 872.864 688.78 871.313 694.516 868.553L847.995 794.699C855.899 790.894 862.569 784.934 867.236 777.506C871.904 770.077 874.379 761.482 874.377 752.709V251.954C874.379 243.181 871.904 234.585 867.236 227.157C862.569 219.728 855.899 213.768 847.995 209.963L694.516 136.121C685.843 131.948 676.088 130.574 666.601 132.19C657.113 133.805 648.362 138.329 641.559 145.137L347.74 413.19L219.765 316.046C213.992 311.663 206.867 309.439 199.625 309.76C192.384 310.082 185.484 312.928 180.121 317.805L139.074 355.142C135.876 358.052 133.321 361.598 131.571 365.551C129.821 369.505 128.915 373.781 128.912 378.104C128.909 382.428 129.808 386.705 131.552 390.661C133.295 394.618 135.846 398.167 139.039 401.082L250.026 502.331L139.045 603.586C135.851 606.501 133.3 610.05 131.555 614.006C129.811 617.963 128.912 622.24 128.915 626.564C128.918 630.888 129.824 635.164 131.575 639.117C133.325 643.071 135.881 646.616 139.08 649.526L180.127 686.863C185.489 691.741 192.389 694.589 199.63 694.911C206.871 695.233 213.997 693.01 219.771 688.628L347.752 591.478L641.57 859.532C646.112 864.082 651.55 867.638 657.54 869.974ZM688.127 333.099L465.186 502.331L688.127 671.558V333.099Z" fill="url(#paint0_linear_537_306)" style="mix-blend-mode:overlay"/>
</g>
<defs>
<filter id="filter0_d_537_306" x="80.3811" y="261.184" width="842.985" height="660.478" filterUnits="userSpaceOnUse" color-interpolation-filters="sRGB">
<feFlood flood-opacity="0" result="BackgroundImageFix"/>
<feColorMatrix in="SourceAlpha" type="matrix" values="0 0 0 0 0 0 0 0 0 0 0 0 0 0 0 0 0 0 127 0" result="hardAlpha"/>
<feOffset/>
<feGaussianBlur stdDeviation="24.2665"/>
<feColorMatrix type="matrix" values="0 0 0 0 0 0 0 0 0 0 0 0 0 0 0 0 0 0 0.25 0"/>
<feBlend mode="overlay" in2="BackgroundImageFix" result="effect1_dropShadow_537_306"/>
<feBlend mode="normal" in="SourceGraphic" in2="effect1_dropShadow_537_306" result="shape"/>
</filter>
<filter id="filter1_d_537_306" x="593.34" y="82.9827" width="330.024" height="838.687" filterUnits="userSpaceOnUse" color-interpolation-filters="sRGB">
<feFlood flood-opacity="0" result="BackgroundImageFix"/>
<feColorMatrix in="SourceAlpha" type="matrix" values="0 0 0 0 0 0 0 0 0 0 0 0 0 0 0 0 0 0 127 0" result="hardAlpha"/>
<feOffset/>
<feGaussianBlur stdDeviation="24.2665"/>
<feColorMatrix type="matrix" values="0 0 0 0 0 0 0 0 0 0 0 0 0 0 0 0 0 0 0.25 0"/>
<feBlend mode="overlay" in2="BackgroundImageFix" result="effect1_dropShadow_537_306"/>
<feBlend mode="normal" in="SourceGraphic" in2="effect1_dropShadow_537_306" result="shape"/>
</filter>
<linearGradient id="paint0_linear_537_306" x1="501.645" y1="131.52" x2="501.645" y2="873.142" gradientUnits="userSpaceOnUse">
<stop stop-color="white"/>
<stop offset="1" stop-color="white" stop-opacity="0"/>
</linearGradient>
</defs>
</svg>
