<svg width="1006" height="1006" viewBox="0 0 1006 1006" fill="none" xmlns="http://www.w3.org/2000/svg">
<path fill-rule="evenodd" clip-rule="evenodd" d="M503.103 913.059C728.667 912.717 911.263 729.232 911.263 502.898C911.263 280.243 729.509 96.8697 512.369 92.9935C284.324 88.9265 93.7643 273.971 93.7051 498.364C93.6393 729.219 275.42 913.388 503.103 913.059ZM502.438 112.848C718.999 112.776 891.546 288.726 891.481 509.551C891.408 718.031 714.287 892.434 502.596 892.48C286.93 892.526 113.494 717.669 113.501 500.2C113.514 288.337 289.648 112.921 502.438 112.848ZM338.992 318.61C342.533 330.41 332.622 334.516 322.086 335.339C310.997 336.194 299.914 337.03 287.042 338.011C329.529 464.59 371.377 589.293 414.22 716.899C417.273 711.904 418.53 710.496 419.083 708.85C442.604 638.552 466.256 568.3 489.177 497.804C491.27 491.375 490.23 482.859 487.94 476.251C475.811 441.24 461.28 406.993 450.646 371.561C443.374 347.303 433.726 331.608 405.052 334.418C400.169 334.898 394.207 324.388 388.738 318.959C395.352 315.01 401.92 307.745 408.593 307.646C466.981 306.749 525.379 306.766 583.766 307.699C590.466 307.811 597.033 315.267 603.647 319.314C597.856 324.605 592.861 332.542 586.089 334.589C575.224 337.866 563.174 337.247 550.17 338.406L677.506 717.208C696.795 653.136 714.741 594.301 732.194 535.316C747.765 482.661 738.485 433.488 710.332 387.112C701.869 373.167 691.471 359.636 686.673 344.427C681.224 327.126 676.696 307.429 679.586 290.075C684.488 260.664 707.055 246.061 737.59 243.264C570.486 88.1762 307.89 143.694 211.13 312.2C248.378 310.483 283.942 308.225 319.532 307.738C326.258 307.653 337.413 313.339 338.992 318.61ZM405.572 831.737C404.796 834.008 404.75 836.535 404.138 840.306C476.154 860.273 546.781 858.831 619.067 834.475L508.637 532.012C473.297 634.748 439.405 733.226 405.572 831.737ZM349.923 818.062L183.549 361.67C108.493 508.281 165.589 731.969 349.923 818.062ZM852.896 524.799C858.174 455.475 834.259 359.491 813.608 346.29C811.304 371.791 812.91 400.162 805.592 426.012C788.37 486.919 767.31 546.767 747.028 606.779C724.981 672.01 702.066 736.945 679.526 802.011C785.428 739.235 843.624 646.581 852.896 524.799Z" fill="url(#paint0_radial_530_374)"/>
<path fill-rule="evenodd" clip-rule="evenodd" d="M503.103 913.059C728.667 912.717 911.263 729.232 911.263 502.898C911.263 280.243 729.509 96.8697 512.369 92.9935C284.324 88.9265 93.7643 273.971 93.7051 498.364C93.6393 729.219 275.42 913.388 503.103 913.059ZM502.438 112.848C718.999 112.776 891.546 288.726 891.481 509.551C891.408 718.031 714.287 892.434 502.596 892.48C286.93 892.526 113.494 717.669 113.501 500.2C113.514 288.337 289.648 112.921 502.438 112.848ZM338.992 318.61C342.533 330.41 332.622 334.516 322.086 335.339C310.997 336.194 299.914 337.03 287.042 338.011C329.529 464.59 371.377 589.293 414.22 716.899C417.273 711.904 418.53 710.496 419.083 708.85C442.604 638.552 466.256 568.3 489.177 497.804C491.27 491.375 490.23 482.859 487.94 476.251C475.811 441.24 461.28 406.993 450.646 371.561C443.374 347.303 433.726 331.608 405.052 334.418C400.169 334.898 394.207 324.388 388.738 318.959C395.352 315.01 401.92 307.745 408.593 307.646C466.981 306.749 525.379 306.766 583.766 307.699C590.466 307.811 597.033 315.267 603.647 319.314C597.856 324.605 592.861 332.542 586.089 334.589C575.224 337.866 563.174 337.247 550.17 338.406L677.506 717.208C696.795 653.136 714.741 594.301 732.194 535.316C747.765 482.661 738.485 433.488 710.332 387.112C701.869 373.167 691.471 359.636 686.673 344.427C681.224 327.126 676.696 307.429 679.586 290.075C684.488 260.664 707.055 246.061 737.59 243.264C570.486 88.1762 307.89 143.694 211.13 312.2C248.378 310.483 283.942 308.225 319.532 307.738C326.258 307.653 337.413 313.339 338.992 318.61ZM405.572 831.737C404.796 834.008 404.75 836.535 404.138 840.306C476.154 860.273 546.781 858.831 619.067 834.475L508.637 532.012C473.297 634.748 439.405 733.226 405.572 831.737ZM349.923 818.062L183.549 361.67C108.493 508.281 165.589 731.969 349.923 818.062ZM852.896 524.799C858.174 455.475 834.259 359.491 813.608 346.29C811.304 371.791 812.91 400.162 805.592 426.012C788.37 486.919 767.31 546.767 747.028 606.779C724.981 672.01 702.066 736.945 679.526 802.011C785.428 739.235 843.624 646.581 852.896 524.799Z" fill="url(#paint1_radial_530_374)"/>
<defs>
<radialGradient id="paint0_radial_530_374" cx="0" cy="0" r="1" gradientUnits="userSpaceOnUse" gradientTransform="translate(502.484 502.994) rotate(90) scale(410.066 408.779)">
<stop offset="0.331731" stop-color="#3858E9"/>
<stop offset="0.807692" stop-color="#1F3183"/>
</radialGradient>
<radialGradient id="paint1_radial_530_374" cx="0" cy="0" r="1" gradientUnits="userSpaceOnUse" gradientTransform="translate(502.484 502.994) rotate(90) scale(410.066 408.779)">
<stop offset="0.331731" stop-color="#3858E9"/>
<stop offset="0.807692" stop-color="#1F3183"/>
</radialGradient>
</defs>
</svg>
